<svg version="1.1" xmlns="http://www.w3.org/2000/svg" viewBox="0 0 853.6887485564699 1591.2155525847356" width="853.6887485564699" height="1591.2155525847356">
  <!-- svg-source:excalidraw -->
  
  <defs>
    <style class="style-fonts">
      @font-face {
        font-family: "Virgil";
        src: url("https://excalidraw.com/Virgil.woff2");
      }
      @font-face {
        font-family: "Cascadia";
        src: url("https://excalidraw.com/Cascadia.woff2");
      }
      @font-face {
        font-family: "Assistant";
        src: url("https://excalidraw.com/Assistant-Regular.woff2");
      }
    </style>
    
  </defs>
  <rect x="0" y="0" width="853.6887485564699" height="1591.2155525847356" fill="#ffffff"></rect><g stroke-linecap="round" transform="translate(228.30158730158712 84.10367504054204) rotate(0 135.5 131.5)"><path d="M86.43 8.83 C98.49 2.05, 115.05 1.51, 129.71 0.89 C144.36 0.27, 160.27 1.17, 174.34 5.11 C188.42 9.04, 202.44 16.1, 214.15 24.49 C225.86 32.88, 236.2 43.92, 244.61 55.46 C253.02 67, 260.36 80.24, 264.63 93.73 C268.9 107.22, 270.66 122.34, 270.25 136.38 C269.84 150.43, 267.35 164.59, 262.17 178 C257 191.41, 248.66 205.67, 239.17 216.86 C229.68 228.04, 217.65 237.77, 205.25 245.11 C192.84 252.45, 179.07 258.02, 164.72 260.9 C150.37 263.79, 133.91 264.28, 119.13 262.42 C104.34 260.56, 89.25 256.05, 76.04 249.73 C62.82 243.42, 50.09 234.54, 39.85 224.52 C29.62 214.49, 21.12 202.29, 14.63 189.59 C8.14 176.9, 2.89 162.28, 0.93 148.34 C-1.03 134.39, -0.19 119.89, 2.86 105.93 C5.91 91.97, 11.89 77.13, 19.22 64.59 C26.55 52.05, 35.18 39.98, 46.83 30.71 C58.47 21.44, 81.26 12.66, 89.08 8.99 C96.89 5.32, 92.89 6.84, 93.73 8.69 M81.15 10.04 C93.32 2.7, 110.5 2.72, 124.91 1.71 C139.31 0.71, 153.61 0.57, 167.56 4.02 C181.5 7.47, 196.27 14.77, 208.57 22.41 C220.87 30.05, 232.41 38.58, 241.36 49.87 C250.3 61.16, 257.4 76.79, 262.25 90.15 C267.11 103.51, 270.04 115.93, 270.48 130.04 C270.92 144.15, 269.37 161.21, 264.89 174.81 C260.4 188.41, 252.84 200.43, 243.59 211.65 C234.35 222.88, 221.83 234.48, 209.43 242.17 C197.04 249.86, 183.47 254.31, 169.21 257.79 C154.96 261.28, 138.33 264.23, 123.89 263.08 C109.46 261.93, 95.97 256.68, 82.61 250.91 C69.24 245.15, 54.51 237.78, 43.7 228.48 C32.88 219.19, 24.58 207.71, 17.72 195.15 C10.86 182.59, 5.4 167.48, 2.55 153.14 C-0.31 138.8, -1.52 123.02, 0.57 109.09 C2.66 95.16, 7.88 82.16, 15.08 69.56 C22.27 56.95, 32.69 43.13, 43.75 33.47 C54.8 23.81, 75.24 14.82, 81.39 11.62 C87.54 8.43, 79.8 12.61, 80.63 14.31" stroke="#1e1e1e" stroke-width="2" fill="none"></path></g><g stroke-linecap="round" transform="translate(394.3015873015871 66.10367504054204) rotate(0 148.5 152.5)"><path d="M169.57 0.87 C184.19 0.5, 199.69 8.2, 213.46 15.32 C227.22 22.44, 241.02 32.72, 252.15 43.58 C263.27 54.44, 273.04 66.75, 280.2 80.48 C287.36 94.21, 292.67 110.19, 295.13 125.95 C297.6 141.71, 297.21 159.36, 294.99 175.06 C292.76 190.76, 288.48 206.16, 281.79 220.13 C275.11 234.11, 265.5 247.82, 254.89 258.9 C244.27 269.99, 231.44 279.42, 218.09 286.64 C204.73 293.85, 189.98 299.3, 174.76 302.19 C159.53 305.07, 141.99 306.03, 126.75 303.96 C111.51 301.88, 97.12 296.67, 83.32 289.75 C69.53 282.82, 54.97 273.47, 43.98 262.43 C32.98 251.39, 24.32 237.49, 17.36 223.51 C10.39 209.53, 4.7 194.05, 2.2 178.56 C-0.29 163.06, 0.07 146.11, 2.39 130.51 C4.71 114.92, 9.65 99.16, 16.11 84.96 C22.57 70.77, 30.77 56.47, 41.15 45.34 C51.52 34.21, 64.68 25.34, 78.36 18.21 C92.05 11.07, 107.26 5.25, 123.24 2.54 C139.22 -0.17, 165.2 1.22, 174.23 1.95 C183.27 2.67, 177.94 4.31, 177.44 6.89 M143.32 1.39 C157.66 -1.52, 176.17 0.84, 190.76 5.13 C205.36 9.42, 218.28 17.83, 230.88 27.13 C243.47 36.43, 256.56 48.78, 266.34 60.91 C276.11 73.04, 284.35 85.26, 289.55 99.91 C294.75 114.57, 297.19 132.82, 297.56 148.83 C297.92 164.84, 296.09 180.83, 291.74 195.96 C287.38 211.09, 280.15 226.84, 271.44 239.61 C262.73 252.37, 251.65 263.08, 239.47 272.54 C227.3 281.99, 212.85 290.8, 198.4 296.33 C183.96 301.86, 168.31 305.15, 152.82 305.71 C137.33 306.26, 120.05 304.36, 105.47 299.68 C90.88 295.01, 77.61 286.89, 65.31 277.66 C53.01 268.43, 41.17 256.86, 31.67 244.31 C22.16 231.76, 13.64 216.87, 8.3 202.36 C2.97 187.84, -0.15 172.68, -0.34 157.23 C-0.53 141.77, 2.83 124.82, 7.16 109.63 C11.5 94.43, 17.19 79.1, 25.68 66.04 C34.16 52.99, 45.7 40.62, 58.09 31.28 C70.48 21.94, 85.43 15.33, 100.03 10.01 C114.64 4.69, 138.25 0.6, 145.72 -0.61 C153.2 -1.82, 145 0.22, 144.89 2.75" stroke="#1e1e1e" stroke-width="2" fill="none"></path></g><g transform="translate(272.3015873015871 189.10367504054204) rotate(0 47.54998779296875 45.54600792288517)"><text x="0" y="63.83728470471588" font-family="Virgil, Segoe UI Emoji" font-size="72.8736126766163px" fill="#1e1e1e" text-anchor="start" style="white-space: pre;" direction="ltr" dominant-baseline="alphabetic">PC</text></g><g transform="translate(522.7515995086184 193.55766711765693) rotate(0 75.32238006591797 27.93166617852279)"><text x="0" y="39.149023315817516" font-family="Virgil, Segoe UI Emoji" font-size="44.690665885636434px" fill="#1e1e1e" text-anchor="start" style="white-space: pre;" direction="ltr" dominant-baseline="alphabetic">Laptop</text></g><g transform="translate(286.3015873015871 133.10367504054204) rotate(0 45 80)" stroke="none"><path fill="#e03131" d="M -1.09,-4.00 Q -1.09,-4.00 2.06,-4.88 5.22,-5.76 9.89,-6.53 14.56,-7.29 22.17,-7.86 29.77,-8.43 37.25,-8.90 44.73,-9.36 49.88,-9.81 55.03,-10.26 58.28,-10.88 61.54,-11.50 64.21,-11.92 66.88,-12.33 70.03,-12.79 73.19,-13.24 76.94,-12.26 80.68,-11.28 84.28,-9.08 87.87,-6.88 89.48,-2.11 91.08,2.65 87.76,6.33 84.43,10.00 75.39,14.34 66.34,18.68 56.64,21.54 46.94,24.40 39.07,26.09 31.20,27.79 27.29,28.53 23.39,29.27 20.77,30.77 18.14,32.28 17.04,34.59 15.95,36.89 14.10,38.73 12.25,40.56 9.33,42.80 6.41,45.04 4.22,46.42 2.04,47.79 -0.26,49.45 -2.57,51.11 -3.61,53.99 -4.66,56.87 -4.86,57.67 -5.06,58.48 -5.45,59.11 -5.85,59.74 -6.39,60.26 -6.93,60.78 -7.57,61.15 -8.22,61.52 -8.93,61.73 -9.65,61.94 -10.39,61.97 -11.14,62.00 -11.87,61.85 -12.60,61.70 -13.27,61.39 -13.95,61.07 -14.53,60.60 -15.10,60.12 -15.55,59.53 -16.00,58.93 -16.29,58.25 -16.59,57.56 -16.71,56.83 -16.83,56.09 -16.77,55.35 -16.71,54.60 -16.47,53.90 -16.24,53.19 -11.21,51.83 -6.18,50.47 -1.99,50.98 2.18,51.49 10.29,51.32 18.39,51.14 30.08,49.48 41.77,47.82 50.18,46.07 58.59,44.31 64.45,42.77 70.31,41.23 74.23,40.03 78.14,38.83 80.12,38.05 82.11,37.27 84.66,36.81 87.22,36.35 89.95,35.65 92.68,34.95 96.89,34.28 101.11,33.60 103.84,33.07 106.56,32.55 109.84,33.12 113.12,33.69 114.64,35.71 116.17,37.72 117.00,41.41 117.84,45.11 118.11,47.96 118.37,50.82 117.78,54.63 117.18,58.45 116.13,60.34 115.08,62.23 112.90,65.04 110.73,67.85 108.67,69.22 106.61,70.60 103.54,72.20 100.48,73.80 97.57,75.24 94.67,76.68 91.46,78.09 88.24,79.51 86.32,80.81 84.40,82.12 82.09,83.53 79.79,84.93 77.25,86.40 74.72,87.86 70.32,89.45 65.91,91.05 61.18,92.69 56.45,94.33 51.43,95.82 46.42,97.32 41.61,98.46 36.81,99.61 32.91,100.86 29.01,102.11 24.05,103.49 19.09,104.88 12.96,106.58 6.84,108.29 0.21,110.14 -6.41,111.99 -12.41,113.62 -18.40,115.26 -23.12,117.05 -27.84,118.84 -30.30,120.06 -32.76,121.28 -34.33,124.35 -35.89,127.42 -36.47,130.21 -37.05,132.99 -37.00,135.49 -36.94,137.99 -32.21,138.86 -27.48,139.74 -21.90,140.15 -16.32,140.56 -8.90,140.26 -1.49,139.96 7.00,138.49 15.49,137.02 23.41,135.02 31.32,133.02 36.98,131.34 42.65,129.67 45.20,128.50 47.75,127.32 49.74,126.40 51.73,125.47 54.39,124.91 57.05,124.35 59.92,124.11 62.79,123.86 65.73,123.75 68.66,123.63 71.92,123.62 75.18,123.60 79.22,124.10 83.26,124.59 84.96,126.33 86.66,128.06 87.79,130.21 88.92,132.37 89.82,134.30 90.71,136.24 90.89,141.00 91.08,145.76 89.82,148.53 88.57,151.29 87.14,153.42 85.71,155.55 83.46,157.55 81.21,159.54 79.04,160.92 76.87,162.29 74.58,163.63 72.30,164.96 69.80,166.03 67.31,167.09 63.45,168.98 59.60,170.87 57.59,171.83 55.58,172.78 59.21,174.51 62.85,176.24 65.47,176.55 68.09,176.85 73.66,175.61 79.24,174.36 83.58,173.13 87.91,171.90 92.93,170.08 97.95,168.25 101.21,166.84 104.46,165.43 106.61,164.58 108.75,163.73 111.33,163.03 113.92,162.33 116.90,162.44 119.88,162.56 122.15,163.74 124.41,164.92 126.12,166.29 127.82,167.66 128.78,170.43 129.73,173.19 129.91,175.35 130.09,177.50 130.22,179.81 130.34,182.12 129.05,185.79 127.75,189.46 124.19,190.99 120.62,192.51 116.16,192.68 111.70,192.84 108.28,193.15 104.86,193.47 102.07,193.70 99.29,193.94 96.07,194.21 92.85,194.49 86.53,194.14 80.22,193.79 72.10,193.51 63.99,193.23 54.79,193.02 45.59,192.81 39.38,192.65 33.17,192.49 30.25,192.62 27.32,192.76 23.94,192.22 20.57,191.69 19.31,187.84 18.06,183.99 19.90,179.86 21.74,175.74 23.33,172.60 24.92,169.47 26.84,166.53 28.77,163.59 30.97,161.39 33.18,159.18 36.79,157.32 40.40,155.45 45.57,154.00 50.74,152.55 56.03,151.18 61.32,149.81 67.09,147.35 72.86,144.90 78.08,142.96 83.30,141.02 86.19,139.54 89.08,138.05 91.04,136.76 93.00,135.47 93.11,131.08 93.22,126.70 92.64,123.22 92.06,119.73 91.08,115.87 90.09,112.01 89.40,109.29 88.71,106.57 88.61,104.09 88.50,101.61 89.15,99.42 89.80,97.22 89.74,94.68 89.68,92.14 89.90,88.06 90.12,83.97 90.91,81.49 91.71,79.00 93.80,75.72 95.90,72.44 98.30,68.65 100.70,64.86 102.60,61.89 104.50,58.92 105.10,55.43 105.69,51.93 106.09,45.69 106.49,39.45 105.91,34.46 105.34,29.47 104.86,25.16 104.39,20.85 103.96,18.10 103.53,15.35 103.31,12.34 103.08,9.33 103.92,5.76 104.75,2.19 107.18,-1.75 109.60,-5.69 111.71,-8.76 113.83,-11.82 115.85,-14.59 117.88,-17.37 119.88,-20.00 121.87,-22.64 123.16,-24.63 124.44,-26.62 114.53,-25.63 104.62,-24.64 94.67,-24.88 84.71,-25.13 78.47,-25.30 72.22,-25.47 69.03,-25.39 65.83,-25.31 62.77,-23.73 59.71,-22.16 57.22,-20.96 54.74,-19.75 52.34,-18.80 49.94,-17.84 48.11,-16.25 46.28,-14.66 44.16,-13.25 42.04,-11.84 38.76,-9.77 35.48,-7.70 31.20,-4.43 26.92,-1.15 22.47,2.73 18.02,6.63 14.58,9.46 11.13,12.28 9.58,13.93 8.03,15.58 6.02,17.11 4.02,18.64 0.79,21.57 -2.42,24.49 -4.32,25.70 -6.22,26.90 -7.50,29.05 -8.77,31.19 -9.41,34.54 -10.06,37.89 -10.87,42.07 -11.68,46.26 -12.66,49.40 -13.63,52.53 -14.27,55.05 -14.92,57.56 -15.49,61.37 -16.07,65.19 -16.79,67.14 -17.51,69.10 -17.89,69.91 -18.28,70.73 -18.90,71.38 -19.53,72.03 -20.33,72.45 -21.13,72.86 -22.02,73.00 -22.91,73.14 -23.80,72.99 -24.69,72.84 -25.49,72.41 -26.28,71.98 -26.89,71.32 -27.51,70.66 -27.88,69.84 -28.26,69.02 -28.35,68.12 -28.44,67.22 -28.24,66.34 -28.04,65.46 -27.57,64.69 -27.10,63.92 -26.40,63.34 -25.71,62.77 -24.87,62.44 -24.03,62.11 -23.13,62.07 -22.23,62.03 -21.36,62.27 -20.49,62.52 -19.75,63.03 -19.01,63.54 -18.47,64.27 -17.93,64.99 -17.64,65.85 -17.36,66.70 -17.37,67.61 -17.38,68.51 -17.67,69.36 -17.96,70.21 -18.52,70.93 -19.07,71.64 -19.82,72.14 -20.57,72.64 -21.44,72.88 -22.31,73.11 -23.21,73.06 -24.11,73.00 -24.95,72.66 -25.78,72.32 -26.47,71.73 -27.15,71.14 -27.61,70.37 -28.07,69.59 -28.26,68.71 -28.44,67.82 -28.34,66.93 -28.23,66.03 -28.23,66.03 -28.23,66.03 -27.07,63.03 -25.91,60.03 -25.53,57.49 -25.15,54.94 -24.49,52.39 -23.83,49.84 -22.50,44.71 -21.18,39.58 -20.31,35.68 -19.43,31.77 -18.67,29.13 -17.91,26.50 -16.10,23.60 -14.28,20.70 -11.18,18.96 -8.09,17.21 -6.23,15.89 -4.36,14.57 -0.70,12.24 2.96,9.92 4.80,8.53 6.63,7.14 9.79,4.18 12.96,1.21 17.30,-3.10 21.63,-7.42 25.85,-11.31 30.07,-15.20 33.25,-17.80 36.44,-20.40 39.71,-22.34 42.97,-24.28 44.87,-25.40 46.76,-26.52 48.90,-27.17 51.04,-27.82 53.83,-29.03 56.62,-30.25 58.87,-30.96 61.13,-31.67 63.42,-32.17 65.71,-32.67 68.97,-32.58 72.24,-32.49 78.48,-32.64 84.73,-32.79 94.70,-32.98 104.67,-33.17 114.68,-33.40 124.69,-33.63 129.62,-32.06 134.55,-30.49 132.94,-26.03 131.33,-21.58 129.76,-19.65 128.19,-17.73 126.17,-15.20 124.16,-12.67 122.16,-10.06 120.16,-7.46 118.22,-4.63 116.27,-1.80 114.55,1.34 112.83,4.50 112.04,6.81 111.25,9.12 111.26,11.84 111.27,14.56 111.38,17.17 111.50,19.78 112.32,24.01 113.13,28.24 114.23,33.90 115.33,39.55 115.58,44.08 115.82,48.61 115.58,51.10 115.34,53.59 114.84,55.76 114.33,57.93 113.27,60.77 112.20,63.61 110.53,66.41 108.86,69.21 106.91,73.59 104.96,77.97 103.59,80.38 102.21,82.80 101.29,85.77 100.36,88.74 100.11,92.36 99.87,95.98 99.14,98.45 98.41,100.92 97.61,102.95 96.81,104.98 97.15,107.37 97.49,109.76 98.94,113.87 100.39,117.99 101.48,122.44 102.57,126.89 102.42,129.60 102.27,132.31 101.69,135.14 101.10,137.96 98.86,139.98 96.62,142.00 94.28,143.07 91.93,144.14 88.75,145.50 85.57,146.85 80.57,148.90 75.56,150.95 69.44,153.81 63.33,156.66 58.24,158.33 53.14,160.00 48.76,161.63 44.38,163.25 40.16,165.83 35.93,168.41 34.28,170.88 32.63,173.36 31.21,176.21 29.79,179.06 28.55,182.15 27.32,185.23 30.25,185.36 33.17,185.50 39.38,185.33 45.59,185.17 54.78,184.96 63.98,184.74 72.09,184.45 80.19,184.15 86.33,183.77 92.47,183.39 95.46,183.41 98.44,183.42 100.89,183.23 103.35,183.04 106.84,182.36 110.32,181.67 114.05,180.64 117.77,179.60 117.80,176.66 117.82,173.71 115.61,172.81 113.40,171.91 110.62,172.42 107.84,172.93 104.54,174.47 101.24,176.01 96.24,178.43 91.24,180.85 86.89,182.85 82.55,184.85 79.36,186.10 76.18,187.34 71.66,187.89 67.15,188.43 63.85,188.25 60.56,188.08 57.30,187.56 54.03,187.04 51.35,186.17 48.66,185.30 46.01,183.20 43.36,181.10 42.71,177.54 42.05,173.99 42.92,171.21 43.78,168.43 45.23,166.61 46.68,164.80 48.62,163.54 50.56,162.28 52.70,161.26 54.85,160.23 56.83,159.34 58.82,158.44 62.55,156.73 66.29,155.02 70.03,152.70 73.77,150.38 76.00,147.99 78.23,145.59 79.09,142.80 79.95,140.01 79.43,137.48 78.92,134.94 77.08,133.70 75.25,132.46 72.04,132.49 68.84,132.52 66.03,132.52 63.22,132.52 60.69,132.54 58.16,132.56 54.19,133.15 50.22,133.75 47.35,134.65 44.48,135.56 38.74,137.44 33.00,139.31 24.90,141.59 16.80,143.87 7.92,145.72 -0.96,147.56 -8.74,148.30 -16.51,149.03 -22.32,149.18 -28.13,149.32 -33.79,149.08 -39.44,148.84 -42.47,145.72 -45.50,142.59 -46.04,138.81 -46.58,135.03 -45.70,131.28 -44.81,127.53 -43.72,125.34 -42.63,123.15 -41.14,121.19 -39.66,119.23 -37.55,117.38 -35.45,115.52 -32.64,114.59 -29.84,113.65 -24.89,111.72 -19.93,109.79 -13.98,108.08 -8.03,106.38 -1.43,104.42 5.15,102.47 11.20,100.63 17.25,98.79 22.00,97.25 26.75,95.72 30.80,94.15 34.86,92.58 39.31,91.15 43.77,89.72 48.35,87.87 52.94,86.01 57.27,83.83 61.60,81.65 64.99,79.67 68.38,77.69 70.66,76.14 72.94,74.60 75.19,72.98 77.43,71.37 80.19,69.73 82.94,68.08 86.07,66.75 89.21,65.42 92.43,63.93 95.66,62.43 97.93,61.40 100.21,60.38 102.77,58.18 105.33,55.99 106.44,53.49 107.55,51.00 107.66,48.44 107.77,45.88 107.72,43.20 107.67,40.52 105.16,40.73 102.64,40.94 98.57,41.99 94.51,43.03 91.28,43.68 88.05,44.33 84.11,44.67 80.17,45.00 76.19,46.40 72.20,47.79 66.24,49.66 60.27,51.53 51.69,53.72 43.10,55.91 31.03,58.14 18.97,60.37 10.42,61.23 1.87,62.08 -3.37,62.31 -8.62,62.53 -6.84,60.51 -5.06,58.48 -5.45,59.11 -5.85,59.74 -6.39,60.26 -6.93,60.78 -7.57,61.15 -8.22,61.52 -8.93,61.73 -9.65,61.94 -10.39,61.97 -11.14,62.00 -11.87,61.85 -12.60,61.70 -13.27,61.39 -13.95,61.07 -14.53,60.60 -15.10,60.12 -15.55,59.53 -16.00,58.93 -16.29,58.25 -16.59,57.56 -16.71,56.83 -16.83,56.09 -16.77,55.35 -16.71,54.60 -16.47,53.90 -16.24,53.19 -15.97,52.43 -15.69,51.67 -14.26,48.82 -12.83,45.98 -11.36,44.05 -9.89,42.12 -6.90,40.23 -3.90,38.33 -0.46,36.14 2.97,33.95 6.13,31.82 9.28,29.70 11.03,27.91 12.77,26.12 14.98,25.13 17.18,24.15 19.57,23.29 21.96,22.43 25.75,21.61 29.53,20.79 37.04,18.83 44.55,16.87 53.46,13.83 62.36,10.78 70.71,4.88 79.05,-1.01 76.27,-2.82 73.49,-4.63 70.50,-4.82 67.50,-5.01 65.02,-4.99 62.54,-4.97 59.10,-4.56 55.66,-4.15 50.45,-3.53 45.24,-2.91 37.82,-2.22 30.41,-1.53 23.26,-0.72 16.10,0.08 11.76,1.19 7.42,2.31 4.25,3.16 1.09,4.00 0.59,4.08 0.10,4.15 -0.39,4.10 -0.89,4.05 -1.36,3.89 -1.83,3.72 -2.25,3.45 -2.67,3.17 -3.01,2.80 -3.36,2.44 -3.60,2.00 -3.84,1.56 -3.97,1.08 -4.11,0.60 -4.12,0.10 -4.13,-0.39 -4.02,-0.88 -3.91,-1.37 -3.69,-1.82 -3.47,-2.27 -3.15,-2.65 -2.83,-3.04 -2.42,-3.33 -2.02,-3.63 -1.55,-3.81 -1.09,-4.00 -1.09,-4.00 L -1.09,-4.00 Z"></path></g><g transform="translate(728.3015873015871 59.10367504054204) rotate(0 57.693580627441406 27)"><text x="0" y="37.843199999999996" font-family="Virgil, Segoe UI Emoji" font-size="43.2px" fill="#e03131" text-anchor="start" style="white-space: pre;" direction="ltr" dominant-baseline="alphabetic">P - L</text></g><g transform="translate(202.30158730158712 48.10367504054204) rotate(0 28.60999298095703 54.10367504054204)"><text x="0" y="75.8317109368237" font-family="Virgil, Segoe UI Emoji" font-size="86.56588006486724px" fill="#e03131" text-anchor="start" style="white-space: pre;" direction="ltr" dominant-baseline="alphabetic">P</text></g><g transform="translate(601.6915943206301 10) rotate(0 25.924713134765625 54.10367504054204)"><text x="0" y="75.8317109368237" font-family="Virgil, Segoe UI Emoji" font-size="86.56588006486724px" fill="#e03131" text-anchor="start" style="white-space: pre;" direction="ltr" dominant-baseline="alphabetic">L</text></g><g stroke-linecap="round" transform="translate(208.86643496468616 439.5515084840041) rotate(0 135.5 131.5)"><path d="M95.91 4.99 C108.49 -0.74, 125.24 -0.73, 140.01 -0.01 C154.77 0.71, 170.57 4.32, 184.48 9.3 C198.38 14.28, 212.23 20.68, 223.43 29.9 C234.63 39.11, 244.11 52.31, 251.69 64.59 C259.27 76.88, 265.92 89.66, 268.91 103.6 C271.91 117.53, 271.6 134.04, 269.64 148.22 C267.69 162.4, 263.57 176.06, 257.17 188.67 C250.77 201.27, 241.5 213.76, 231.25 223.84 C220.99 233.93, 208.6 242.76, 195.64 249.16 C182.68 255.57, 168 260.36, 153.49 262.27 C138.99 264.19, 123.09 263.53, 108.61 260.67 C94.13 257.82, 79.36 252.41, 66.62 245.15 C53.88 237.89, 41.59 228.03, 32.17 217.11 C22.75 206.2, 15.34 193.08, 10.09 179.66 C4.85 166.25, 1.52 151.01, 0.71 136.64 C-0.09 122.28, 1.13 106.91, 5.25 93.46 C9.37 80.01, 16.78 67.34, 25.43 55.95 C34.09 44.56, 43.87 33.81, 57.19 25.12 C70.51 16.44, 95.91 7.18, 105.34 3.85 C114.78 0.51, 113.36 3.23, 113.79 5.13 M82.94 10.39 C95.24 3.14, 113.32 0.22, 128.17 -0.61 C143.02 -1.44, 158.13 1.69, 172.02 5.42 C185.92 9.14, 199.65 13.79, 211.54 21.73 C223.44 29.67, 234.76 41.46, 243.38 53.06 C251.99 64.66, 258.6 77.92, 263.24 91.34 C267.87 104.76, 271.42 119.49, 271.22 133.58 C271.02 147.67, 266.89 162.58, 262.03 175.89 C257.17 189.2, 251.2 202.17, 242.06 213.47 C232.92 224.76, 219.94 235.91, 207.19 243.65 C194.44 251.39, 179.9 256.57, 165.55 259.91 C151.2 263.24, 135.67 264.97, 121.09 263.67 C106.51 262.36, 91.16 258.26, 78.05 252.07 C64.94 245.88, 53.03 236.52, 42.42 226.54 C31.82 216.55, 21.15 204.75, 14.4 192.13 C7.65 179.52, 4.1 165.09, 1.92 150.86 C-0.26 136.63, -1.22 120.57, 1.32 106.73 C3.86 92.9, 9.68 80.07, 17.15 67.86 C24.61 55.65, 35.26 42.95, 46.13 33.46 C57 23.96, 75.68 14.46, 82.34 10.88 C89 7.31, 85.01 10.34, 86.07 12.02" stroke="#1e1e1e" stroke-width="2" fill="none"></path></g><g stroke-linecap="round" transform="translate(393.37301587301556 397.74653218339927) rotate(0 148.5 152.5)"><path d="M120.89 2.24 C134.54 -2.81, 152.04 -0.72, 167.2 1.48 C182.35 3.69, 197.89 8.72, 211.83 15.49 C225.76 22.26, 239.57 31.44, 250.8 42.11 C262.03 52.78, 271.86 65.84, 279.22 79.51 C286.57 93.18, 292.11 108.6, 294.91 124.13 C297.72 139.66, 298.11 156.99, 296.07 172.7 C294.02 188.42, 289.37 204.36, 282.64 218.4 C275.92 232.44, 266.39 245.56, 255.74 256.96 C245.09 268.36, 231.96 279.11, 218.74 286.81 C205.52 294.52, 191.23 300.31, 176.42 303.17 C161.6 306.02, 145.03 306.2, 129.86 303.95 C114.69 301.7, 99.13 296.48, 85.39 289.66 C71.65 282.85, 58.76 273.89, 47.41 263.08 C36.06 252.27, 24.8 238.53, 17.29 224.8 C9.78 211.07, 5.08 195.96, 2.34 180.69 C-0.41 165.42, -1.32 148.87, 0.81 133.19 C2.93 117.51, 8.39 100.75, 15.08 86.6 C21.77 72.44, 30.62 59.72, 40.96 48.27 C51.3 36.82, 62.61 25.68, 77.11 17.89 C91.61 10.11, 118.29 3.93, 127.98 1.55 C137.67 -0.83, 134.82 1.18, 135.26 3.61 M112.53 4.19 C126.33 -2, 144.9 -1.26, 160.35 -0.14 C175.8 0.98, 190.96 4.95, 205.22 10.92 C219.49 16.89, 234.15 25.34, 245.96 35.7 C257.78 46.06, 268.29 59.76, 276.11 73.1 C283.93 86.45, 289.41 100.56, 292.89 115.79 C296.36 131.02, 298.07 148.89, 296.96 164.5 C295.84 180.11, 292.15 195.07, 286.19 209.43 C280.23 223.8, 270.93 238.48, 261.19 250.69 C251.44 262.89, 240.58 274.54, 227.73 282.67 C214.88 290.8, 199 295.56, 184.07 299.45 C169.14 303.34, 153.54 307.02, 138.14 306.03 C122.73 305.03, 106.13 299.82, 91.64 293.48 C77.14 287.14, 62.89 278.28, 51.16 267.97 C39.43 257.66, 29.18 245.08, 21.26 231.61 C13.34 218.14, 7.29 202.49, 3.63 187.18 C-0.02 171.87, -1.92 155.08, -0.68 139.76 C0.57 124.45, 5.34 109.75, 11.12 95.3 C16.9 80.85, 24.22 65.24, 34 53.07 C43.79 40.89, 56.83 30.18, 69.85 22.25 C82.86 14.32, 104.56 7.96, 112.11 5.48 C119.66 3, 114.47 5.16, 115.15 7.38" stroke="#1e1e1e" stroke-width="2" fill="none"></path></g><g transform="translate(274.2857142857142 491.23065916752614) rotate(0 72.14285714285717 89.28571428571428)" stroke="none"><path fill="#e03131" d="M -1.61,-4.15 Q -1.61,-4.15 5.86,-6.80 13.34,-9.45 20.73,-11.77 28.12,-14.08 32.48,-15.41 36.84,-16.73 39.12,-17.57 41.40,-18.40 44.56,-19.47 47.71,-20.54 50.63,-21.80 53.55,-23.06 57.33,-23.91 61.10,-24.76 64.45,-25.14 67.80,-25.53 71.05,-26.49 74.31,-27.46 76.27,-27.79 78.23,-28.12 78.87,-28.11 79.52,-28.10 80.14,-27.93 80.77,-27.77 81.34,-27.46 81.90,-27.15 82.38,-26.71 82.85,-26.27 83.21,-25.73 83.57,-25.20 83.79,-24.59 84.01,-23.98 84.07,-23.34 84.14,-22.69 84.05,-22.05 83.96,-21.41 83.72,-20.81 83.48,-20.21 83.10,-19.69 82.73,-19.16 82.24,-18.74 81.74,-18.32 81.17,-18.03 80.59,-17.74 79.96,-17.60 79.33,-17.46 77.16,-11.88 74.99,-6.31 69.95,-2.28 64.91,1.74 59.31,4.64 53.70,7.55 49.40,9.85 45.10,12.16 41.47,13.72 37.84,15.27 35.67,16.45 33.49,17.62 30.05,19.81 26.61,22.00 24.86,23.59 23.10,25.19 19.10,27.86 15.09,30.53 11.78,32.84 8.46,35.15 5.98,37.34 3.49,39.54 1.70,41.37 -0.08,43.21 -1.66,46.01 -3.24,48.81 -0.97,49.96 1.29,51.12 5.33,51.65 9.38,52.18 17.74,52.54 26.10,52.89 35.61,51.92 45.12,50.94 53.96,48.57 62.80,46.21 70.34,44.00 77.89,41.79 83.92,39.68 89.96,37.56 97.66,35.80 105.36,34.04 116.91,32.48 128.46,30.93 140.77,29.87 153.08,28.81 164.51,28.37 175.94,27.93 182.43,27.75 188.92,27.57 192.09,27.30 195.26,27.03 197.96,27.68 200.66,28.33 202.31,30.73 203.96,33.14 204.15,35.94 204.35,38.75 203.45,41.56 202.55,44.37 201.21,46.57 199.88,48.77 198.24,50.42 196.59,52.07 193.28,54.22 189.97,56.37 185.27,58.09 180.58,59.81 175.87,61.59 171.16,63.36 165.09,66.09 159.02,68.81 152.95,70.83 146.87,72.85 142.78,74.44 138.69,76.03 136.00,77.00 133.31,77.97 128.27,79.98 123.24,82.00 116.21,83.20 109.19,84.41 101.35,85.66 93.51,86.92 86.52,88.23 79.54,89.54 76.13,90.25 72.72,90.95 70.42,91.41 68.13,91.86 64.92,93.78 61.72,95.70 59.36,96.88 57.01,98.06 54.35,99.39 51.69,100.71 46.55,102.35 41.41,103.99 36.01,105.81 30.60,107.62 26.11,108.79 21.62,109.96 17.79,111.22 13.96,112.48 11.86,113.29 9.76,114.10 8.77,116.13 7.78,118.17 9.63,119.56 11.49,120.96 14.09,121.23 16.69,121.50 22.11,121.97 27.52,122.44 36.76,122.34 45.99,122.24 55.47,120.66 64.95,119.08 73.49,116.85 82.02,114.61 88.16,112.87 94.29,111.13 99.27,109.23 104.24,107.32 110.96,104.86 117.68,102.40 125.63,100.50 133.57,98.60 144.85,97.39 156.14,96.17 163.79,95.67 171.44,95.17 175.97,94.97 180.51,94.78 183.03,95.37 185.55,95.96 187.95,98.73 190.35,101.49 190.87,104.15 191.40,106.81 190.03,110.38 188.66,113.94 183.79,118.38 178.92,122.81 171.21,126.31 163.50,129.81 156.10,132.00 148.70,134.20 142.64,135.49 136.58,136.79 131.85,137.32 127.12,137.85 122.43,138.84 117.74,139.83 110.63,140.68 103.51,141.53 95.51,141.88 87.51,142.23 79.25,142.77 71.00,143.32 63.32,143.54 55.64,143.77 47.10,144.27 38.56,144.77 32.59,145.79 26.62,146.80 22.42,147.64 18.22,148.48 15.77,149.45 13.33,150.42 10.76,152.04 8.19,153.65 6.24,155.93 4.30,158.21 4.17,161.05 4.05,163.90 7.39,165.18 10.74,166.47 14.95,167.08 19.15,167.69 24.71,168.10 30.28,168.50 38.40,168.76 46.53,169.02 54.92,169.20 63.31,169.37 72.55,169.09 81.79,168.80 90.87,167.09 99.95,165.39 107.52,163.46 115.09,161.54 119.68,160.71 124.26,159.88 127.51,159.33 130.75,158.78 133.17,159.33 135.58,159.89 137.05,161.76 138.51,163.63 139.24,165.93 139.96,168.23 139.83,172.22 139.69,176.21 138.45,178.46 137.20,180.71 135.33,182.89 133.46,185.06 131.01,186.74 128.56,188.43 126.53,190.86 124.50,193.29 122.09,194.80 119.67,196.32 116.82,197.33 113.97,198.34 111.49,199.37 109.00,200.41 106.51,201.37 104.01,202.33 101.27,202.88 98.53,203.43 95.07,203.85 91.62,204.27 87.42,204.31 83.22,204.35 77.49,204.58 71.75,204.82 64.24,204.84 56.73,204.86 47.40,204.80 38.06,204.74 28.75,204.67 19.44,204.60 11.87,202.85 4.30,201.11 -1.28,199.52 -6.87,197.93 -9.84,197.00 -12.82,196.08 -15.21,194.82 -17.61,193.57 -19.99,191.75 -22.36,189.92 -25.41,185.92 -28.46,181.92 -30.91,178.65 -33.35,175.39 -35.07,172.13 -36.80,168.87 -38.01,166.31 -39.23,163.75 -39.92,161.60 -40.62,159.45 -40.96,156.70 -41.31,153.95 -41.24,149.91 -41.17,145.86 -41.00,141.30 -40.84,136.73 -40.70,131.92 -40.56,127.11 -40.59,123.42 -40.62,119.73 -40.33,116.65 -40.05,113.57 -39.06,110.36 -38.07,107.15 -37.36,104.69 -36.64,102.22 -35.43,99.62 -34.22,97.01 -32.31,94.43 -30.41,91.86 -27.34,88.87 -24.27,85.87 -20.28,82.92 -16.29,79.96 -13.08,77.26 -9.87,74.56 -7.81,72.45 -5.76,70.33 -5.22,68.17 -4.68,66.01 -7.09,66.09 -9.50,66.16 -12.34,65.34 -15.19,64.52 -17.56,63.75 -19.92,62.99 -22.93,62.20 -25.94,61.40 -29.01,60.12 -32.08,58.84 -34.94,55.51 -37.80,52.17 -38.14,49.32 -38.49,46.46 -38.57,44.19 -38.66,41.92 -38.69,39.68 -38.72,37.43 -37.73,34.00 -36.73,30.57 -34.69,26.97 -32.65,23.37 -27.30,19.79 -21.95,16.21 -16.40,13.79 -10.84,11.37 -3.83,9.17 3.16,6.97 12.09,5.66 21.02,4.35 34.96,2.23 48.90,0.11 59.34,-1.57 69.77,-3.26 77.53,-4.37 85.29,-5.47 90.60,-6.33 95.91,-7.19 100.10,-8.33 104.28,-9.48 107.75,-10.51 111.22,-11.55 113.34,-12.53 115.45,-13.50 117.63,-14.44 119.80,-15.37 123.63,-15.81 127.46,-16.25 131.06,-16.39 134.67,-16.54 137.42,-16.72 140.17,-16.89 143.84,-17.21 147.51,-17.52 151.80,-16.23 156.08,-14.94 157.33,-12.83 158.57,-10.72 158.97,-7.89 159.37,-5.07 159.38,-2.05 159.38,0.96 156.19,5.69 152.99,10.42 147.80,13.18 142.61,15.93 135.36,17.72 128.11,19.51 120.59,20.98 113.07,22.44 102.70,23.04 92.32,23.64 83.85,23.85 75.39,24.06 69.33,24.12 63.27,24.19 60.07,24.76 56.87,25.34 54.37,26.10 51.88,26.86 49.15,27.65 46.43,28.45 44.14,29.25 41.84,30.06 46.51,29.67 51.18,29.28 55.73,29.70 60.28,30.12 64.70,29.19 69.11,28.25 73.60,27.08 78.09,25.92 83.16,23.87 88.22,21.81 92.65,20.48 97.08,19.15 101.92,18.17 106.76,17.20 110.51,16.67 114.27,16.14 118.23,15.57 122.20,15.00 126.92,14.79 131.64,14.58 138.57,14.52 145.50,14.45 152.13,14.43 158.76,14.42 162.40,14.29 166.04,14.16 169.98,14.15 173.92,14.14 176.11,18.21 178.30,22.28 178.53,24.49 178.76,26.71 178.83,29.72 178.89,32.73 178.98,35.24 179.06,37.75 178.55,40.41 178.04,43.08 175.63,45.82 173.21,48.55 171.04,50.24 168.86,51.92 163.94,53.44 159.02,54.95 152.62,55.44 146.23,55.93 139.49,56.02 132.75,56.10 124.56,56.08 116.37,56.06 107.55,56.00 98.74,55.95 88.01,55.90 77.28,55.84 62.04,55.80 46.80,55.75 33.85,56.54 20.89,57.32 10.53,58.86 0.18,60.40 -7.00,62.26 -14.19,64.11 -20.52,66.12 -26.85,68.13 -32.75,70.59 -38.65,73.05 -43.18,75.30 -47.70,77.55 -49.71,79.37 -51.72,81.18 -52.23,83.58 -52.74,85.99 -50.14,88.78 -47.53,91.58 -39.29,93.37 -31.04,95.17 -18.06,96.07 -5.09,96.97 9.42,96.58 23.93,96.19 36.90,93.61 49.88,91.04 57.56,89.54 65.23,88.04 69.68,87.02 74.13,85.99 77.51,84.68 80.89,83.37 86.67,82.01 92.44,80.65 102.36,79.25 112.28,77.86 125.16,76.87 138.03,75.88 146.79,75.47 155.55,75.05 159.67,74.85 163.79,74.65 165.95,74.33 168.11,74.00 171.74,74.87 175.37,75.74 179.09,79.28 182.81,82.82 184.06,84.62 185.30,86.41 186.63,88.34 187.96,90.26 188.86,93.48 189.76,96.70 190.31,100.41 190.87,104.12 191.06,107.95 191.24,111.79 190.79,114.10 190.34,116.41 188.99,118.75 187.64,121.09 185.89,122.76 184.14,124.43 178.34,126.93 172.54,129.44 164.93,131.19 157.31,132.94 148.77,134.36 140.23,135.78 130.85,137.12 121.46,138.47 111.36,140.20 101.27,141.94 91.10,143.07 80.94,144.19 73.03,145.45 65.13,146.70 59.70,147.62 54.27,148.55 50.48,149.73 46.70,150.91 44.87,152.01 43.03,153.10 42.39,155.44 41.75,157.77 47.62,159.28 53.48,160.79 59.84,161.14 66.20,161.49 72.61,160.13 79.02,158.77 85.49,156.63 91.95,154.50 102.49,149.96 113.02,145.42 123.32,141.04 133.62,136.65 142.18,133.54 150.75,130.44 155.71,129.11 160.67,127.79 163.18,126.98 165.68,126.18 168.37,126.61 171.06,127.05 172.62,128.86 174.17,130.67 174.76,132.98 175.34,135.29 175.54,138.34 175.73,141.39 175.43,144.25 175.14,147.10 174.59,149.34 174.05,151.57 172.34,154.54 170.64,157.52 168.58,160.06 166.52,162.60 163.94,165.49 161.36,168.38 158.31,170.80 155.25,173.21 152.84,175.02 150.42,176.82 148.52,178.14 146.62,179.46 144.69,180.80 142.75,182.15 140.37,183.82 137.99,185.49 135.89,186.40 133.79,187.31 130.91,188.91 128.03,190.51 125.12,191.01 122.21,191.50 118.54,190.91 114.86,190.31 113.95,189.95 113.04,189.58 112.29,188.94 111.54,188.30 111.04,187.46 110.54,186.62 110.33,185.66 110.12,184.70 110.23,183.72 110.34,182.75 110.75,181.85 111.17,180.96 111.85,180.25 112.52,179.54 113.39,179.08 114.26,178.63 115.23,178.47 116.20,178.31 117.17,178.48 118.14,178.64 119.01,179.10 119.87,179.56 120.55,180.28 121.22,180.99 121.63,181.89 122.04,182.78 122.14,183.76 122.25,184.73 122.03,185.69 121.82,186.65 121.31,187.49 120.80,188.33 120.05,188.97 119.30,189.60 118.39,189.96 117.47,190.32 116.49,190.37 115.51,190.42 114.56,190.16 113.62,189.89 112.81,189.34 111.99,188.78 111.40,188.00 110.81,187.21 110.50,186.28 110.19,185.35 110.19,184.37 110.19,183.39 110.51,182.46 110.83,181.53 111.42,180.75 112.02,179.96 112.84,179.42 113.65,178.87 114.60,178.61 115.55,178.35 116.53,178.40 117.51,178.46 117.51,178.46 117.51,178.46 119.49,179.07 121.48,179.69 123.78,179.67 126.09,179.65 128.91,178.37 131.73,177.09 134.60,175.53 137.46,173.98 141.31,171.75 145.15,169.53 147.47,167.90 149.80,166.27 152.09,164.48 154.39,162.69 156.68,159.55 158.96,156.41 160.62,154.42 162.27,152.43 163.51,150.54 164.75,148.66 165.77,145.19 166.79,141.71 166.91,137.17 167.03,132.63 164.60,132.95 162.18,133.27 157.48,134.60 152.78,135.93 144.41,139.08 136.04,142.23 125.82,146.75 115.60,151.27 104.91,156.10 94.22,160.93 87.46,163.45 80.71,165.96 73.43,167.81 66.14,169.65 59.59,169.82 53.04,169.99 47.96,170.03 42.87,170.07 39.75,168.75 36.62,167.42 35.09,165.00 33.55,162.58 33.18,159.79 32.82,157.01 33.55,154.63 34.27,152.26 37.28,149.62 40.28,146.98 42.63,146.20 44.98,145.42 49.11,144.13 53.23,142.84 58.68,141.80 64.13,140.77 72.16,139.36 80.19,137.94 90.12,136.65 100.05,135.37 110.18,133.36 120.30,131.34 129.51,129.67 138.72,127.99 146.87,126.17 155.02,124.35 161.55,122.33 168.08,120.32 173.75,116.82 179.42,113.33 179.82,110.94 180.22,108.55 180.25,105.02 180.27,101.48 179.99,98.41 179.70,95.34 178.49,93.33 177.28,91.32 175.44,87.94 173.60,84.57 170.98,82.54 168.35,80.50 166.19,80.33 164.03,80.16 159.92,80.32 155.81,80.49 147.14,80.93 138.46,81.37 125.77,82.39 113.08,83.41 103.44,84.82 93.80,86.23 88.34,87.59 82.89,88.96 79.16,90.20 75.43,91.44 70.90,92.55 66.37,93.66 58.71,95.24 51.05,96.83 37.59,99.59 24.14,102.34 9.32,102.90 -5.48,103.45 -18.99,102.71 -32.50,101.97 -42.11,99.90 -51.73,97.83 -55.98,94.39 -60.23,90.95 -59.44,85.52 -58.66,80.08 -57.11,78.21 -55.56,76.35 -52.83,74.57 -50.10,72.78 -45.41,70.44 -40.72,68.09 -34.61,65.53 -28.50,62.97 -22.03,60.89 -15.57,58.82 -8.11,56.86 -0.64,54.91 9.94,53.28 20.53,51.66 33.67,50.79 46.80,49.93 62.03,49.86 77.27,49.80 87.99,49.71 98.70,49.61 107.49,49.46 116.27,49.32 124.37,49.07 132.46,48.82 138.92,48.38 145.39,47.94 150.72,47.18 156.06,46.43 159.42,45.02 162.77,43.61 164.60,42.27 166.42,40.94 167.94,39.35 169.45,37.77 169.50,35.31 169.55,32.86 169.54,30.00 169.52,27.13 170.24,23.64 170.97,20.15 168.52,20.16 166.07,20.17 162.43,20.08 158.80,19.99 152.20,20.07 145.59,20.14 138.77,20.29 131.96,20.43 127.52,20.73 123.08,21.02 119.02,21.62 114.97,22.23 111.45,22.53 107.94,22.84 103.40,23.83 98.86,24.82 94.75,26.18 90.63,27.53 85.27,29.88 79.91,32.22 75.31,33.67 70.72,35.12 65.37,36.47 60.02,37.82 55.11,37.82 50.21,37.82 45.10,37.41 40.00,37.01 36.65,34.80 33.31,32.59 32.91,29.79 32.52,26.99 36.04,24.58 39.57,22.16 42.10,21.58 44.63,21.00 47.47,20.45 50.30,19.91 53.15,19.46 56.00,19.00 59.57,18.65 63.15,18.30 69.16,18.12 75.18,17.94 83.53,17.57 91.89,17.21 101.76,16.45 111.63,15.70 118.90,13.98 126.17,12.27 132.44,10.43 138.72,8.60 142.16,6.69 145.61,4.79 147.28,2.42 148.94,0.06 148.26,-4.04 147.57,-8.15 143.96,-8.40 140.35,-8.64 137.66,-8.70 134.97,-8.76 131.58,-8.64 128.18,-8.51 125.20,-8.31 122.22,-8.11 119.98,-7.54 117.74,-6.97 115.25,-6.34 112.77,-5.71 109.28,-4.90 105.79,-4.09 101.33,-2.82 96.87,-1.55 91.52,-0.60 86.16,0.34 78.48,1.56 70.80,2.78 60.36,4.63 49.93,6.48 36.02,8.82 22.12,11.17 13.85,12.62 5.58,14.08 -0.81,16.47 -7.21,18.86 -11.93,21.43 -16.66,24.00 -20.04,26.38 -23.42,28.75 -25.16,33.10 -26.89,37.45 -26.80,41.48 -26.71,45.50 -25.60,47.84 -24.49,50.17 -22.10,51.10 -19.71,52.03 -16.18,53.58 -12.65,55.13 -9.21,56.00 -5.77,56.88 -3.19,57.93 -0.60,58.98 1.02,60.34 2.66,61.70 3.03,65.94 3.41,70.18 1.36,72.94 -0.68,75.71 -2.98,77.68 -5.28,79.66 -8.46,82.72 -11.64,85.79 -14.94,88.65 -18.25,91.52 -20.76,94.50 -23.28,97.48 -24.83,99.30 -26.38,101.11 -27.53,103.04 -28.67,104.97 -29.62,107.38 -30.58,109.78 -31.58,112.24 -32.58,114.69 -33.11,117.21 -33.64,119.73 -33.66,123.41 -33.67,127.09 -33.51,131.88 -33.34,136.68 -33.10,141.19 -32.87,145.70 -32.64,149.48 -32.42,153.27 -32.21,157.03 -31.99,160.79 -31.14,163.24 -30.29,165.69 -29.08,168.43 -27.88,171.16 -25.36,174.26 -22.84,177.37 -20.02,180.62 -17.19,183.88 -13.81,186.88 -10.43,189.88 -7.87,191.07 -5.32,192.25 0.16,193.68 5.65,195.12 12.55,196.63 19.45,198.13 28.72,197.98 37.99,197.83 47.25,197.58 56.51,197.34 63.76,196.92 71.01,196.50 76.82,195.71 82.63,194.92 86.26,194.47 89.90,194.02 95.01,193.07 100.12,192.11 102.35,191.25 104.59,190.39 109.40,188.41 114.22,186.43 116.73,184.66 119.23,182.88 121.05,181.16 122.86,179.44 125.72,177.17 128.58,174.91 129.80,172.73 131.03,170.56 131.21,167.85 131.39,165.14 128.36,165.31 125.33,165.49 120.95,166.36 116.58,167.23 108.85,169.31 101.12,171.39 91.60,173.31 82.08,175.23 72.68,175.74 63.29,176.26 54.88,176.38 46.47,176.51 38.27,176.65 30.07,176.79 24.28,176.92 18.49,177.04 13.38,176.99 8.26,176.95 4.45,176.13 0.64,175.31 -2.18,173.30 -5.00,171.30 -5.88,168.81 -6.76,166.32 -6.36,162.84 -5.96,159.36 -5.18,156.82 -4.40,154.27 -1.32,151.77 1.74,149.27 4.52,147.42 7.29,145.57 9.43,145.00 11.56,144.42 14.36,143.85 17.17,143.27 21.45,142.41 25.72,141.54 31.98,140.48 38.23,139.41 46.85,138.89 55.47,138.36 63.05,138.11 70.62,137.86 78.94,137.27 87.25,136.68 95.03,136.29 102.81,135.90 109.65,135.02 116.48,134.14 121.42,133.00 126.36,131.86 130.76,131.23 135.16,130.61 140.92,129.18 146.68,127.76 153.55,125.48 160.42,123.20 166.97,120.04 173.51,116.88 177.06,113.39 180.61,109.90 181.77,106.82 182.92,103.74 181.75,101.94 180.58,100.15 176.20,100.39 171.81,100.63 164.27,101.16 156.74,101.68 145.82,102.89 134.89,104.10 127.30,105.97 119.72,107.84 113.09,110.38 106.46,112.91 101.28,115.04 96.11,117.16 89.96,119.11 83.81,121.06 75.03,123.62 66.26,126.19 56.27,128.19 46.29,130.18 36.77,130.76 27.26,131.34 21.42,131.48 15.58,131.61 11.03,131.10 6.48,130.58 4.07,128.97 1.65,127.36 -0.15,123.47 -1.96,119.57 -1.39,116.75 -0.82,113.94 1.77,111.12 4.36,108.31 8.09,107.33 11.82,106.35 15.78,104.91 19.73,103.46 23.89,102.11 28.04,100.76 33.33,98.59 38.61,96.41 43.16,94.47 47.71,92.53 50.45,91.22 53.20,89.91 57.69,88.18 62.18,86.44 64.65,85.48 67.12,84.52 69.35,84.47 71.57,84.41 74.94,83.93 78.31,83.44 85.34,81.94 92.37,80.44 100.11,78.95 107.85,77.46 114.29,76.06 120.73,74.67 123.97,73.57 127.20,72.48 129.33,71.90 131.45,71.32 133.92,70.86 136.39,70.39 140.57,68.59 144.76,66.80 150.42,64.72 156.09,62.64 162.18,59.58 168.27,56.53 172.85,54.38 177.43,52.22 181.06,50.50 184.69,48.77 188.44,46.04 192.19,43.32 194.06,40.75 195.92,38.19 195.65,35.69 195.38,33.20 192.23,33.10 189.08,32.99 182.62,33.20 176.16,33.41 164.87,33.89 153.57,34.36 141.40,35.47 129.23,36.57 117.97,38.15 106.70,39.74 99.37,41.51 92.04,43.28 85.90,45.59 79.77,47.91 72.21,50.34 64.65,52.78 55.34,55.53 46.03,58.28 36.02,59.68 26.01,61.08 17.45,61.24 8.88,61.39 4.03,61.44 -0.82,61.49 -4.59,60.46 -8.36,59.44 -10.63,56.72 -12.89,54.01 -12.71,50.37 -12.53,46.73 -10.65,43.71 -8.77,40.68 -7.20,38.96 -5.63,37.23 -3.56,35.50 -1.49,33.77 1.23,31.45 3.97,29.12 7.13,26.60 10.30,24.07 13.81,21.16 17.32,18.25 19.73,16.37 22.14,14.49 26.28,12.63 30.41,10.76 32.81,9.89 35.22,9.01 38.49,7.67 41.77,6.33 45.99,3.75 50.22,1.18 55.00,-1.59 59.79,-4.38 63.73,-7.93 67.68,-11.48 69.91,-15.07 72.15,-18.65 75.19,-23.39 78.23,-28.12 78.87,-28.11 79.52,-28.10 80.14,-27.93 80.77,-27.77 81.33,-27.46 81.90,-27.15 82.38,-26.71 82.85,-26.27 83.21,-25.73 83.57,-25.20 83.79,-24.59 84.01,-23.98 84.07,-23.34 84.14,-22.69 84.05,-22.05 83.96,-21.41 83.72,-20.81 83.48,-20.21 83.10,-19.69 82.73,-19.16 82.24,-18.74 81.75,-18.32 81.17,-18.03 80.59,-17.74 79.96,-17.60 79.33,-17.46 76.56,-17.41 73.78,-17.36 71.31,-16.84 68.83,-16.32 66.04,-16.02 63.25,-15.72 60.31,-14.97 57.37,-14.22 53.92,-13.20 50.47,-12.19 46.93,-11.69 43.38,-11.19 41.18,-10.79 38.97,-10.39 34.71,-8.81 30.44,-7.23 23.33,-4.63 16.22,-2.04 8.92,1.05 1.61,4.15 1.09,4.29 0.57,4.42 0.03,4.42 -0.50,4.43 -1.02,4.31 -1.54,4.18 -2.02,3.93 -2.50,3.69 -2.90,3.34 -3.31,2.98 -3.62,2.54 -3.93,2.10 -4.12,1.60 -4.32,1.10 -4.39,0.57 -4.46,0.03 -4.40,-0.49 -4.34,-1.03 -4.15,-1.53 -3.96,-2.04 -3.66,-2.48 -3.36,-2.93 -2.96,-3.29 -2.56,-3.65 -2.09,-3.90 -1.61,-4.15 -1.61,-4.15 L -1.61,-4.15 Z"></path></g><g transform="translate(10 446.9449448818119) rotate(0 106.2039154052733 17.5)"><text x="0" y="24.52799999999997" font-family="Virgil, Segoe UI Emoji" font-size="27.999999999999968px" fill="#e03131" text-anchor="start" style="white-space: pre;" direction="ltr" dominant-baseline="alphabetic">Outer join on P</text></g><g transform="translate(431.42857142857144 494.08780202466903) rotate(0 7.1428571428570535 67.14285714285711)" stroke="none"><path fill="#1971c2" d="M 2.36,4.73 Q 2.36,4.73 2.08,4.59 1.79,4.44 3.70,6.45 5.61,8.45 6.43,7.53 7.25,6.61 7.97,6.32 8.70,6.03 9.47,5.92 10.24,5.81 11.02,5.89 11.79,5.97 12.53,6.23 13.26,6.49 13.91,6.93 14.56,7.36 15.09,7.93 15.62,8.50 15.99,9.19 16.37,9.87 16.57,10.62 16.77,11.38 16.79,12.16 16.80,12.94 16.63,13.70 16.46,14.46 16.11,15.16 15.76,15.85 15.25,16.45 14.75,17.04 14.11,17.49 13.48,17.95 11.62,19.01 9.77,20.06 7.33,21.20 4.90,22.34 3.09,23.68 1.29,25.03 -1.42,26.89 -4.14,28.75 -7.00,30.69 -9.87,32.64 -11.56,33.96 -13.26,35.29 -13.59,37.43 -13.91,39.56 -12.68,42.05 -11.44,44.54 -8.97,45.46 -6.51,46.38 -3.43,46.54 -0.35,46.70 2.33,46.22 5.03,45.74 7.02,44.55 9.02,43.37 11.71,41.68 14.40,40.00 16.76,36.75 19.11,33.49 21.44,34.70 23.77,35.92 19.65,35.81 15.52,35.69 12.09,37.29 8.66,38.89 6.94,40.97 5.22,43.04 3.89,45.29 2.56,47.55 1.67,49.85 0.79,52.16 -0.03,54.79 -0.87,57.42 -2.25,59.97 -3.62,62.52 -3.89,65.34 -4.16,68.16 -4.17,71.31 -4.17,74.46 -2.69,77.23 -1.22,80.00 1.38,79.69 3.98,79.39 6.40,79.56 8.82,79.73 11.33,78.01 13.84,76.29 14.36,72.95 14.89,69.60 17.07,69.05 19.24,68.49 16.85,68.33 14.45,68.17 10.01,67.57 5.56,66.96 -0.51,66.53 -6.59,66.10 -10.75,66.97 -14.91,67.84 -18.61,69.66 -22.30,71.47 -24.55,73.11 -26.80,74.75 -27.34,77.45 -27.87,80.16 -27.84,83.06 -27.80,85.97 -26.85,90.34 -25.90,94.70 -24.77,98.05 -23.65,101.40 -22.07,105.44 -20.49,109.47 -18.96,111.72 -17.43,113.98 -14.78,114.99 -12.13,116.00 -8.83,116.10 -5.53,116.20 -1.07,114.74 3.39,113.28 6.54,111.44 9.70,109.60 12.17,107.64 14.65,105.68 15.38,102.16 16.11,98.63 16.24,96.14 16.37,93.64 17.38,90.29 18.40,86.95 19.23,84.98 20.06,83.01 20.87,85.03 21.67,87.04 19.42,88.21 17.17,89.37 14.40,91.24 11.63,93.11 9.34,95.64 7.05,98.16 6.34,100.51 5.63,102.85 5.33,105.35 5.03,107.84 4.84,110.91 4.65,113.98 4.53,117.35 4.41,120.72 4.46,123.36 4.50,126.00 5.40,129.44 6.31,132.88 7.58,135.01 8.86,137.15 10.76,138.96 12.66,140.77 15.33,140.64 18.00,140.51 21.46,138.14 24.91,135.76 26.21,133.68 27.50,131.61 28.20,128.40 28.89,125.19 29.41,120.06 29.93,114.92 30.00,111.83 30.07,108.75 29.32,111.94 28.56,115.13 28.50,119.04 28.44,122.96 27.99,127.93 27.53,132.90 26.90,135.43 26.27,137.97 26.10,140.86 25.93,143.75 25.94,144.84 25.96,145.93 25.82,146.63 25.69,147.33 25.39,147.98 25.10,148.62 24.65,149.18 24.21,149.74 23.65,150.17 23.08,150.61 22.43,150.90 21.78,151.19 21.08,151.31 20.38,151.43 19.67,151.39 18.96,151.34 18.28,151.12 17.60,150.91 16.99,150.53 16.39,150.16 15.89,149.65 15.39,149.15 15.02,148.53 14.66,147.92 14.45,147.24 14.24,146.56 14.21,145.85 14.17,145.14 16.70,142.12 19.23,139.09 20.84,137.09 22.46,135.08 24.64,131.24 26.81,127.40 28.72,122.94 30.62,118.48 33.20,112.00 35.78,105.52 38.18,99.88 40.59,94.23 41.57,90.07 42.56,85.91 42.75,83.63 42.94,81.34 42.84,78.55 42.74,75.75 39.68,74.30 36.62,72.85 32.80,72.34 28.98,71.83 21.60,71.90 14.23,71.96 7.57,73.12 0.90,74.28 -3.08,75.50 -7.07,76.73 -8.73,78.75 -10.40,80.76 -10.84,80.95 -11.28,81.13 -11.75,81.20 -12.22,81.27 -12.69,81.23 -13.17,81.19 -13.62,81.03 -14.07,80.88 -14.47,80.62 -14.87,80.36 -15.19,80.02 -15.52,79.67 -15.75,79.26 -15.99,78.84 -16.12,78.38 -16.24,77.93 -16.26,77.45 -16.27,76.98 -16.17,76.51 -16.07,76.05 -15.87,75.62 -15.66,75.19 -15.36,74.82 -15.05,74.46 -14.67,74.18 -14.29,73.89 -10.69,73.99 -7.10,74.08 -3.52,73.03 0.05,71.98 1.45,69.36 2.84,66.75 3.07,64.39 3.30,62.04 3.55,58.61 3.81,55.18 3.96,51.66 4.11,48.13 3.19,43.36 2.26,38.60 1.04,35.40 -0.17,32.20 -1.43,29.85 -2.69,27.49 -4.68,26.69 -6.67,25.89 -9.62,25.41 -12.56,24.93 -15.55,24.72 -18.53,24.51 -19.48,24.51 -20.43,24.51 -20.94,24.40 -21.45,24.29 -21.93,24.06 -22.40,23.84 -22.80,23.50 -23.21,23.16 -23.52,22.74 -23.83,22.32 -24.03,21.84 -24.24,21.35 -24.32,20.83 -24.40,20.31 -24.35,19.79 -24.30,19.27 -24.13,18.77 -23.96,18.27 -23.68,17.83 -23.39,17.39 -23.01,17.03 -22.63,16.67 -22.17,16.41 -21.72,16.15 -21.21,16.01 -20.70,15.87 -20.18,15.85 -19.65,15.83 -17.41,15.78 -15.18,15.72 -11.21,15.84 -7.25,15.96 -5.03,15.92 -2.82,15.89 -4.01,13.73 -5.21,11.57 -6.35,8.47 -7.49,5.38 -9.13,2.46 -10.78,-0.45 -12.40,1.64 -14.02,3.74 -14.24,6.11 -14.47,8.48 -13.89,9.90 -13.31,11.31 -13.21,11.99 -13.11,12.67 -13.17,13.35 -13.24,14.04 -13.46,14.69 -13.69,15.33 -14.06,15.91 -14.43,16.49 -14.93,16.95 -15.44,17.42 -16.03,17.76 -16.63,18.10 -17.29,18.28 -17.96,18.46 -18.64,18.48 -19.33,18.50 -20.00,18.35 -20.67,18.21 -21.29,17.91 -21.90,17.60 -22.43,17.16 -22.95,16.72 -23.36,16.17 -23.77,15.62 -24.03,14.98 -24.29,14.35 -24.32,11.83 -24.34,9.31 -23.11,4.93 -21.88,0.54 -20.43,-3.36 -18.97,-7.27 -16.83,-10.38 -14.68,-13.48 -11.67,-14.19 -8.67,-14.91 -4.55,-13.43 -0.43,-11.95 2.49,-11.03 5.41,-10.12 8.29,-8.80 11.16,-7.49 13.65,-6.10 16.15,-4.72 19.55,-2.25 22.96,0.21 25.22,1.45 27.48,2.69 31.69,5.42 35.89,8.16 37.68,10.57 39.46,12.99 40.90,15.59 42.34,18.20 43.99,20.18 45.63,22.16 46.29,25.65 46.95,29.14 46.41,33.28 45.87,37.41 44.44,39.95 43.02,42.49 42.45,44.54 41.87,46.59 40.17,48.71 38.47,50.84 39.08,53.18 39.70,55.51 39.64,58.99 39.58,62.47 39.12,66.68 38.65,70.90 38.47,74.30 38.28,77.70 39.43,81.38 40.57,85.07 40.98,88.01 41.38,90.96 41.52,93.57 41.66,96.17 41.73,99.83 41.79,103.50 41.63,104.47 41.48,105.45 41.02,106.32 40.56,107.19 39.84,107.86 39.13,108.54 38.24,108.96 37.35,109.37 36.37,109.48 35.39,109.59 34.43,109.38 33.47,109.17 32.62,108.66 31.78,108.16 31.14,107.41 30.50,106.66 30.13,105.74 29.77,104.83 29.71,103.85 29.66,102.86 29.92,101.92 30.18,100.97 30.73,100.15 31.28,99.34 32.07,98.74 32.85,98.14 33.78,97.83 34.71,97.51 35.70,97.51 36.68,97.51 37.62,97.82 38.55,98.13 39.33,98.73 40.12,99.32 40.67,100.14 41.23,100.95 41.49,101.90 41.75,102.85 41.70,103.83 41.65,104.81 41.29,105.73 40.93,106.64 40.29,107.39 39.65,108.14 38.81,108.65 37.97,109.16 37.01,109.37 36.05,109.59 35.07,109.48 34.09,109.38 33.19,108.96 32.30,108.55 31.59,107.88 30.87,107.20 30.41,106.33 29.95,105.46 29.79,104.49 29.62,103.52 29.62,103.52 29.62,103.52 29.67,99.89 29.72,96.25 29.80,93.02 29.87,89.79 29.62,87.26 29.36,84.72 28.39,81.28 27.43,77.84 27.24,74.37 27.05,70.90 26.59,66.68 26.13,62.46 26.07,60.25 26.01,58.05 26.09,54.67 26.17,51.29 26.47,49.06 26.77,46.83 28.90,43.78 31.02,40.73 32.08,38.08 33.13,35.43 34.37,33.52 35.61,31.60 35.79,29.16 35.98,26.73 34.81,24.90 33.64,23.08 31.63,19.30 29.63,15.52 26.26,12.99 22.90,10.45 20.58,8.99 18.27,7.52 14.79,5.57 11.31,3.62 9.18,2.33 7.06,1.04 4.87,-0.07 2.68,-1.19 -0.50,-2.13 -3.68,-3.07 -6.96,-3.79 -10.23,-4.50 -11.14,-0.92 -12.05,2.65 -12.68,6.98 -13.31,11.31 -13.21,11.99 -13.11,12.67 -13.17,13.35 -13.24,14.04 -13.46,14.69 -13.69,15.33 -14.06,15.91 -14.43,16.48 -14.93,16.95 -15.44,17.42 -16.03,17.76 -16.63,18.10 -17.29,18.28 -17.96,18.46 -18.64,18.48 -19.33,18.50 -20.00,18.35 -20.67,18.21 -21.29,17.91 -21.90,17.60 -22.43,17.16 -22.95,16.72 -23.36,16.17 -23.77,15.62 -24.03,14.98 -24.29,14.35 -24.38,13.35 -24.48,12.34 -24.63,8.45 -24.78,4.56 -23.58,1.67 -22.38,-1.21 -20.75,-3.66 -19.13,-6.11 -16.04,-8.33 -12.95,-10.55 -9.55,-9.64 -6.15,-8.73 -4.99,-6.59 -3.82,-4.44 -1.82,-1.02 0.17,2.40 1.81,6.50 3.45,10.60 3.47,15.33 3.49,20.06 0.90,22.09 -1.68,24.13 -4.44,24.11 -7.21,24.09 -11.10,24.26 -15.00,24.42 -17.71,24.47 -20.43,24.51 -20.94,24.40 -21.45,24.29 -21.93,24.07 -22.40,23.84 -22.80,23.50 -23.21,23.17 -23.52,22.74 -23.83,22.32 -24.03,21.84 -24.24,21.35 -24.32,20.83 -24.40,20.31 -24.35,19.79 -24.30,19.27 -24.13,18.77 -23.96,18.27 -23.68,17.83 -23.39,17.39 -23.01,17.03 -22.63,16.67 -22.17,16.41 -21.72,16.15 -21.21,16.01 -20.70,15.87 -20.18,15.85 -19.65,15.83 -18.73,16.07 -17.81,16.31 -14.46,16.66 -11.11,17.02 -6.87,17.86 -2.64,18.71 0.64,21.02 3.94,23.33 5.45,26.38 6.97,29.43 8.42,33.13 9.87,36.84 11.35,42.53 12.84,48.22 12.86,51.88 12.89,55.55 12.85,59.39 12.81,63.23 12.34,66.39 11.88,69.54 10.31,73.11 8.74,76.67 6.23,78.35 3.72,80.04 0.20,81.31 -3.32,82.59 -6.86,81.68 -10.40,80.76 -10.84,80.95 -11.28,81.13 -11.75,81.20 -12.22,81.27 -12.69,81.23 -13.17,81.19 -13.62,81.03 -14.07,80.88 -14.47,80.62 -14.87,80.36 -15.19,80.02 -15.52,79.67 -15.75,79.26 -15.99,78.84 -16.12,78.38 -16.24,77.93 -16.26,77.45 -16.27,76.98 -16.17,76.51 -16.08,76.05 -15.87,75.62 -15.66,75.19 -15.36,74.82 -15.05,74.46 -14.67,74.18 -14.29,73.89 -14.05,73.37 -13.81,72.84 -11.48,71.70 -9.15,70.57 -4.79,69.00 -0.43,67.44 6.75,65.90 13.94,64.37 21.77,63.88 29.60,63.40 34.48,63.54 39.36,63.68 42.65,64.93 45.94,66.19 48.63,71.24 51.32,76.29 50.73,79.45 50.13,82.61 49.52,84.93 48.90,87.26 47.98,92.02 47.05,96.77 44.97,102.44 42.89,108.11 40.71,114.73 38.52,121.35 36.96,126.43 35.39,131.52 33.27,136.63 31.15,141.74 28.55,143.83 25.96,145.93 25.82,146.63 25.69,147.33 25.39,147.98 25.10,148.62 24.66,149.18 24.21,149.74 23.65,150.17 23.09,150.61 22.43,150.90 21.78,151.19 21.08,151.31 20.38,151.43 19.67,151.39 18.96,151.34 18.28,151.12 17.60,150.91 16.99,150.53 16.39,150.16 15.89,149.65 15.39,149.15 15.02,148.54 14.66,147.92 14.45,147.24 14.24,146.56 14.21,145.85 14.17,145.14 14.45,142.27 14.74,139.41 15.10,137.31 15.46,135.21 16.01,133.14 16.56,131.07 16.93,128.97 17.29,126.87 17.47,122.69 17.65,118.50 18.41,114.90 19.18,111.31 20.30,109.08 21.41,106.86 23.83,104.24 26.24,101.62 28.79,100.87 31.34,100.12 34.44,102.25 37.53,104.39 37.80,106.72 38.08,109.05 37.87,112.22 37.66,115.39 37.52,121.09 37.38,126.80 36.53,131.71 35.68,136.62 33.32,140.13 30.97,143.63 28.13,145.68 25.29,147.72 21.60,149.10 17.91,150.47 15.09,150.24 12.27,150.01 8.33,147.78 4.39,145.55 2.93,143.31 1.46,141.07 0.06,138.15 -1.34,135.22 -2.86,130.62 -4.39,126.01 -4.28,123.26 -4.17,120.51 -4.12,116.98 -4.07,113.45 -3.87,109.96 -3.66,106.46 -3.04,103.18 -2.42,99.90 -0.96,96.38 0.49,92.86 3.30,89.32 6.12,85.77 9.56,83.03 13.01,80.29 17.65,78.34 22.29,76.39 25.05,77.43 27.81,78.48 28.91,80.87 30.01,83.26 28.74,86.58 27.48,89.90 26.67,92.16 25.87,94.42 25.59,97.39 25.32,100.36 24.55,103.51 23.79,106.67 22.05,109.43 20.32,112.19 17.45,114.59 14.59,116.99 11.00,119.61 7.40,122.24 3.68,123.92 -0.03,125.59 -3.05,125.95 -6.07,126.31 -10.34,125.64 -14.61,124.98 -17.72,123.76 -20.83,122.54 -22.65,120.52 -24.47,118.51 -26.16,115.69 -27.85,112.87 -29.99,108.82 -32.13,104.78 -33.95,100.72 -35.78,96.66 -36.38,93.72 -36.99,90.78 -37.32,88.19 -37.65,85.60 -37.06,81.69 -36.47,77.79 -35.69,75.73 -34.92,73.68 -33.16,71.18 -31.40,68.68 -28.56,66.85 -25.73,65.03 -21.33,62.55 -16.94,60.06 -11.73,58.57 -6.52,57.07 -0.21,56.85 6.09,56.63 11.47,56.52 16.85,56.42 20.16,57.43 23.48,58.45 25.27,64.24 27.06,70.03 26.23,73.08 25.39,76.13 24.82,78.20 24.25,80.28 22.84,82.52 21.43,84.77 19.09,86.57 16.74,88.37 12.83,89.90 8.92,91.43 5.95,91.42 2.98,91.42 0.03,91.18 -2.91,90.95 -6.21,89.50 -9.51,88.06 -11.58,85.47 -13.64,82.88 -14.72,79.92 -15.80,76.95 -15.67,73.59 -15.54,70.23 -15.04,66.51 -14.53,62.79 -12.73,58.55 -10.92,54.31 -10.07,51.36 -9.22,48.40 -8.08,45.29 -6.93,42.19 -5.42,39.43 -3.91,36.68 -0.05,32.92 3.80,29.16 6.51,27.85 9.21,26.55 12.59,25.69 15.96,24.83 19.34,24.99 22.72,25.16 25.13,26.10 27.54,27.05 27.71,33.08 27.87,39.12 26.06,41.87 24.24,44.62 22.22,46.54 20.20,48.45 17.32,50.57 14.43,52.68 11.04,54.63 7.65,56.57 3.47,57.66 -0.71,58.74 -5.28,58.31 -9.85,57.89 -12.14,57.10 -14.44,56.31 -17.02,54.74 -19.61,53.18 -22.18,50.13 -24.75,47.09 -25.23,42.48 -25.71,37.86 -24.96,35.18 -24.21,32.51 -23.05,30.30 -21.89,28.10 -19.09,26.09 -16.30,24.09 -13.67,21.89 -11.04,19.69 -8.57,17.61 -6.11,15.53 -3.44,13.39 -0.78,11.25 3.23,8.93 7.25,6.61 7.97,6.32 8.70,6.03 9.47,5.92 10.24,5.81 11.02,5.89 11.79,5.97 12.53,6.23 13.26,6.49 13.91,6.92 14.56,7.36 15.09,7.93 15.62,8.50 15.99,9.19 16.37,9.87 16.57,10.62 16.77,11.38 16.79,12.16 16.80,12.94 16.63,13.70 16.46,14.46 16.11,15.16 15.76,15.85 15.25,16.45 14.75,17.04 14.11,17.49 13.48,17.95 12.75,18.49 12.03,19.04 8.67,19.70 5.31,20.37 2.69,19.64 0.07,18.90 -2.73,16.40 -5.54,13.89 -6.90,10.53 -8.25,7.17 -8.01,4.73 -7.76,2.29 -6.42,-0.25 -5.07,-2.80 -3.72,-3.76 -2.36,-4.73 -1.76,-4.95 -1.16,-5.16 -0.53,-5.23 0.10,-5.29 0.73,-5.20 1.36,-5.11 1.96,-4.87 2.55,-4.64 3.07,-4.26 3.59,-3.89 4.00,-3.40 4.41,-2.92 4.70,-2.35 4.98,-1.78 5.12,-1.15 5.27,-0.53 5.25,0.10 5.24,0.74 5.07,1.35 4.91,1.97 4.60,2.53 4.29,3.09 3.86,3.56 3.43,4.03 2.90,4.38 2.36,4.73 2.36,4.73 L 2.36,4.73 Z"></path></g><g transform="translate(225.71428571428567 398.37351631038325) rotate(0 42.85714285714283 2.142857142857224)" stroke="none"><path fill="#2f9e44" d="M 1.47,-3.93 Q 1.47,-3.93 4.76,-2.65 8.06,-1.38 11.88,1.62 15.70,4.62 18.85,7.55 21.99,10.47 24.89,12.83 27.79,15.18 30.75,17.94 33.71,20.70 36.32,23.59 38.92,26.47 40.96,28.89 43.00,31.31 45.21,31.57 47.42,31.83 51.85,24.87 56.27,17.91 61.80,8.23 67.32,-1.43 71.76,-10.41 76.20,-19.39 78.11,-23.94 80.01,-28.50 80.60,-30.57 81.18,-32.65 81.48,-33.15 81.78,-33.65 82.23,-34.03 82.67,-34.41 83.21,-34.63 83.76,-34.85 84.34,-34.89 84.92,-34.92 85.49,-34.76 86.05,-34.61 86.53,-34.28 87.02,-33.96 87.37,-33.49 87.73,-33.03 87.92,-32.48 88.11,-31.92 88.11,-31.34 88.11,-30.75 87.93,-30.20 87.74,-29.65 87.39,-29.18 87.04,-28.71 86.56,-28.38 86.07,-28.05 85.51,-27.90 84.95,-27.74 84.36,-27.77 83.78,-27.80 83.24,-28.01 82.69,-28.22 82.25,-28.60 81.80,-28.98 81.50,-29.48 81.19,-29.98 81.07,-30.55 80.94,-31.12 81.00,-31.70 81.06,-32.28 81.30,-32.81 81.55,-33.34 81.95,-33.77 82.35,-34.19 82.86,-34.47 83.38,-34.75 83.96,-34.84 84.53,-34.94 85.11,-34.85 85.69,-34.75 86.20,-34.48 86.72,-34.21 87.12,-33.79 87.53,-33.36 87.77,-32.83 88.02,-32.30 88.09,-31.72 88.15,-31.14 88.03,-30.57 87.90,-30.00 87.91,-30.00 87.91,-30.00 86.92,-28.08 85.93,-26.16 84.13,-21.31 82.32,-16.46 78.04,-7.18 73.76,2.10 68.42,12.20 63.08,22.31 57.42,30.96 51.75,39.61 48.15,40.62 44.55,41.63 40.86,38.73 37.17,35.83 35.48,33.43 33.78,31.04 31.45,28.37 29.12,25.71 26.28,23.14 23.43,20.58 20.40,18.15 17.38,15.71 14.30,13.16 11.23,10.60 8.15,8.46 5.07,6.31 1.80,5.12 -1.47,3.93 -1.92,3.69 -2.37,3.46 -2.75,3.12 -3.13,2.79 -3.42,2.38 -3.71,1.96 -3.89,1.49 -4.07,1.01 -4.13,0.51 -4.19,0.01 -4.13,-0.48 -4.08,-0.98 -3.90,-1.46 -3.72,-1.93 -3.43,-2.35 -3.15,-2.77 -2.77,-3.10 -2.39,-3.44 -1.95,-3.68 -1.50,-3.92 -1.01,-4.04 -0.52,-4.16 -0.01,-4.16 0.49,-4.16 0.98,-4.05 1.47,-3.93 1.47,-3.93 L 1.47,-3.93 Z"></path></g><g transform="translate(279.9999999999999 396.9449448818119) rotate(0 46.428571428571445 -5.714285714285779)" stroke="none"><path fill="#2f9e44" d="M 2.18,-2.67 Q 2.18,-2.67 6.63,1.10 11.08,4.89 15.17,9.56 19.27,14.24 22.12,17.37 24.97,20.51 26.69,22.03 28.41,23.54 33.10,21.83 37.78,20.11 44.19,13.83 50.60,7.55 60.41,-4.14 70.21,-15.84 76.09,-22.89 81.96,-29.95 84.41,-33.28 86.86,-36.61 87.72,-38.21 88.59,-39.80 88.97,-40.18 89.35,-40.56 89.84,-40.80 90.32,-41.04 90.86,-41.11 91.40,-41.18 91.93,-41.08 92.46,-40.98 92.93,-40.71 93.40,-40.44 93.76,-40.04 94.12,-39.63 94.33,-39.14 94.54,-38.64 94.59,-38.10 94.63,-37.56 94.50,-37.04 94.36,-36.51 94.07,-36.06 93.78,-35.60 93.35,-35.26 92.93,-34.93 92.42,-34.74 91.92,-34.56 91.37,-34.54 90.83,-34.53 90.32,-34.69 89.80,-34.85 89.36,-35.17 88.92,-35.49 88.61,-35.93 88.30,-36.37 88.14,-36.88 87.98,-37.40 88.00,-37.94 88.01,-38.48 88.20,-38.99 88.39,-39.50 88.73,-39.92 89.07,-40.34 89.53,-40.63 89.98,-40.92 90.51,-41.05 91.04,-41.18 91.57,-41.13 92.11,-41.08 92.61,-40.87 93.11,-40.65 93.51,-40.29 93.91,-39.93 94.17,-39.46 94.44,-38.98 94.54,-38.45 94.64,-37.92 94.56,-37.39 94.49,-36.85 94.25,-36.37 94.00,-35.88 94.01,-35.88 94.01,-35.88 92.76,-34.56 91.52,-33.25 89.02,-29.73 86.51,-26.20 80.73,-19.06 74.94,-11.92 65.04,0.11 55.15,12.15 48.06,19.19 40.98,26.24 35.73,28.62 30.48,31.01 27.16,29.73 23.84,28.45 22.25,26.50 20.67,24.54 17.68,21.43 14.69,18.32 10.84,14.10 6.98,9.89 2.39,6.28 -2.18,2.67 -2.47,2.37 -2.76,2.07 -2.97,1.71 -3.18,1.35 -3.29,0.95 -3.41,0.55 -3.42,0.13 -3.44,-0.28 -3.36,-0.69 -3.27,-1.09 -3.09,-1.47 -2.92,-1.85 -2.65,-2.17 -2.39,-2.49 -2.05,-2.74 -1.72,-2.99 -1.34,-3.15 -0.95,-3.32 -0.54,-3.38 -0.13,-3.45 0.27,-3.42 0.69,-3.38 1.09,-3.25 1.48,-3.12 1.83,-2.89 2.18,-2.67 2.18,-2.67 L 2.18,-2.67 Z"></path></g><g transform="translate(472.8571428571428 534.087802024669) rotate(0 -16.428571428571445 36.42857142857139)" stroke="none"><path fill="#2f9e44" d="M 3.30,2.10 Q 3.30,2.10 0.28,6.52 -2.73,10.94 -7.21,21.57 -11.69,32.20 -16.59,43.02 -21.48,53.84 -23.98,59.62 -26.48,65.39 -27.74,69.50 -29.00,73.62 -29.27,74.10 -29.54,74.58 -29.94,74.95 -30.35,75.32 -30.85,75.54 -31.36,75.76 -31.91,75.80 -32.45,75.85 -32.99,75.72 -33.52,75.59 -33.99,75.30 -34.45,75.01 -34.80,74.58 -35.14,74.16 -35.34,73.64 -35.53,73.13 -35.55,72.58 -35.57,72.03 -35.41,71.50 -35.25,70.98 -34.93,70.53 -34.62,70.08 -34.17,69.76 -33.73,69.43 -33.20,69.27 -32.68,69.10 -32.13,69.12 -31.58,69.13 -31.06,69.31 -30.55,69.50 -30.12,69.84 -29.69,70.18 -29.39,70.64 -29.09,71.10 -28.95,71.64 -28.82,72.17 -28.86,72.72 -28.90,73.27 -29.11,73.77 -29.33,74.28 -29.69,74.69 -30.05,75.10 -30.53,75.37 -31.01,75.65 -31.55,75.75 -32.09,75.86 -32.63,75.79 -33.18,75.72 -33.67,75.48 -34.16,75.24 -34.55,74.85 -34.94,74.46 -35.19,73.97 -35.44,73.48 -35.52,72.94 -35.59,72.40 -35.49,71.85 -35.39,71.31 -35.39,71.32 -35.39,71.32 -33.69,67.20 -31.99,63.08 -29.60,57.19 -27.20,51.31 -22.52,40.49 -17.83,29.68 -13.30,18.40 -8.76,7.12 -6.03,2.51 -3.30,-2.10 -3.00,-2.46 -2.70,-2.83 -2.32,-3.11 -1.94,-3.39 -1.51,-3.58 -1.07,-3.76 -0.61,-3.84 -0.14,-3.91 0.32,-3.87 0.79,-3.83 1.24,-3.68 1.69,-3.53 2.08,-3.28 2.48,-3.02 2.81,-2.68 3.13,-2.34 3.37,-1.93 3.60,-1.52 3.73,-1.07 3.86,-0.61 3.88,-0.14 3.90,0.32 3.80,0.78 3.71,1.25 3.50,1.67 3.30,2.10 3.30,2.10 L 3.30,2.10 Z"></path></g><g stroke-linecap="round" transform="translate(277.943381911339 876.4640695489053) rotate(0 62.934145255700344 60.86588696091212)"><path d="M43.81 2.6 C52.25 -0.97, 64.05 -0.58, 73.6 1.28 C83.16 3.13, 93.5 8.05, 101.14 13.72 C108.78 19.39, 115.22 26.69, 119.44 35.29 C123.66 43.89, 126.74 55.93, 126.44 65.33 C126.15 74.74, 122.71 83.66, 117.66 91.71 C112.62 99.76, 104.48 108.52, 96.17 113.63 C87.87 118.75, 77.55 122.03, 67.83 122.4 C58.11 122.76, 46.99 119.88, 37.83 115.81 C28.68 111.74, 18.98 105.22, 12.91 97.95 C6.85 90.68, 3.29 81.25, 1.47 72.2 C-0.36 63.16, -0.79 52.86, 1.98 43.65 C4.76 34.45, 9.83 24.17, 18.1 16.97 C26.37 9.77, 44.73 3.09, 51.62 0.47 C58.51 -2.14, 59.28 0.27, 59.43 1.27 M33.27 6.17 C41.13 0.95, 52.22 0.31, 62.02 0.27 C71.82 0.24, 83.59 1.53, 92.06 5.97 C100.53 10.41, 107.25 18.94, 112.82 26.91 C118.39 34.88, 123.93 44.46, 125.49 53.78 C127.04 63.1, 125.34 74.32, 122.15 82.83 C118.96 91.34, 113.39 98.45, 106.36 104.84 C99.32 111.23, 89.32 118.54, 79.93 121.16 C70.54 123.77, 59.89 122.99, 50.03 120.51 C40.17 118.03, 28.17 112.35, 20.76 106.26 C13.34 100.17, 8.88 92.65, 5.52 83.97 C2.16 75.29, -0.18 63.89, 0.61 54.21 C1.4 44.53, 4.79 33.55, 10.25 25.88 C15.7 18.21, 29.3 11.14, 33.33 8.2 C37.37 5.27, 33.8 7.72, 34.43 8.26" stroke="none" stroke-width="0" fill="#ffc9c9"></path><path d="M39.88 5.02 C48.38 0.65, 60.58 -1.12, 70.13 -0.11 C79.67 0.9, 89.2 5.77, 97.15 11.08 C105.09 16.39, 113.17 23.66, 117.8 31.76 C122.43 39.86, 124.54 50.37, 124.91 59.7 C125.27 69.02, 124.25 79.25, 120.01 87.71 C115.77 96.17, 107.51 104.87, 99.47 110.47 C91.44 116.08, 81.33 119.95, 71.8 121.32 C62.27 122.68, 51.37 121.9, 42.29 118.68 C33.2 115.46, 23.95 108.97, 17.27 102.01 C10.59 95.04, 4.74 85.97, 2.21 76.89 C-0.32 67.82, 0.06 56.9, 2.08 47.55 C4.09 38.19, 7.33 28.27, 14.29 20.76 C21.25 13.24, 38.24 5.48, 43.82 2.47 C49.4 -0.54, 47.6 1.79, 47.78 2.7 M75.12 0.03 C84.12 0.99, 93.25 7.58, 100.89 13.38 C108.52 19.19, 117.03 26.23, 120.93 34.86 C124.84 43.48, 124.89 55.55, 124.32 65.14 C123.74 74.72, 122.11 84.19, 117.47 92.36 C112.83 100.53, 104.96 109.44, 96.48 114.15 C87.99 118.85, 76.48 120.3, 66.56 120.6 C56.63 120.89, 45.97 119.78, 36.92 115.91 C27.87 112.03, 18.05 104.58, 12.24 97.35 C6.43 90.12, 3.51 81.58, 2.05 72.52 C0.59 63.45, 0.89 52.16, 3.46 42.95 C6.04 33.73, 10.56 23.88, 17.52 17.23 C24.47 10.57, 35.58 5.51, 45.21 3.01 C54.84 0.51, 70.35 2.39, 75.31 2.24 C80.26 2.1, 75.41 1.61, 74.95 2.16" stroke="#1e1e1e" stroke-width="2" fill="none"></path></g><g stroke-linecap="round" transform="translate(200.82689406280485 876.4640695489053) rotate(0 62.93414525570029 60.86588696091212)"><path d="M85.25 4.53 C94.16 6.93, 102.86 14.06, 109.23 20.88 C115.6 27.71, 120.98 36.4, 123.47 45.51 C125.96 54.61, 126.47 66.13, 124.15 75.5 C121.83 84.87, 115.96 94.7, 109.55 101.72 C103.14 108.74, 94.72 114.25, 85.69 117.62 C76.67 120.99, 65.24 123.07, 55.38 121.94 C45.51 120.81, 34.36 116.25, 26.49 110.83 C18.62 105.4, 12.41 97.79, 8.16 89.4 C3.91 81.01, 1.07 69.92, 0.98 60.49 C0.89 51.05, 3.09 41.08, 7.61 32.78 C12.13 24.48, 20.04 16.13, 28.1 10.7 C36.16 5.27, 45.98 0.95, 55.98 0.2 C65.98 -0.56, 82.27 4.83, 88.1 6.16 C93.93 7.5, 91.48 7.38, 90.96 8.19 M43.6 1.97 C51.89 -1.64, 62.61 -0.14, 72.17 1.62 C81.73 3.38, 93.3 7.07, 100.97 12.52 C108.64 17.97, 113.82 25.91, 118.2 34.33 C122.58 42.76, 127.51 53.49, 127.27 63.05 C127.04 72.61, 122.03 83.65, 116.8 91.7 C111.57 99.75, 103.91 106.44, 95.88 111.36 C87.85 116.27, 78.27 120.24, 68.64 121.18 C59.01 122.12, 46.94 120.46, 38.12 117 C29.3 113.54, 21.98 107.91, 15.74 100.42 C9.5 92.92, 3.04 81.24, 0.71 72.02 C-1.63 62.79, -1.04 53.79, 1.72 45.05 C4.47 36.31, 10.27 26.34, 17.24 19.56 C24.21 12.79, 39.44 6.98, 43.53 4.4 C47.62 1.83, 41.43 3.47, 41.79 4.11" stroke="none" stroke-width="0" fill="#b2f2bb"></path><path d="M43.63 3.6 C51.99 -0.15, 62.59 -0.59, 72.2 0.67 C81.82 1.94, 93.35 5.49, 101.32 11.2 C109.29 16.91, 116 26.42, 120.02 34.96 C124.05 43.5, 125.88 53.05, 125.47 62.44 C125.07 71.83, 122.33 83.18, 117.62 91.32 C112.91 99.47, 105.3 106.38, 97.21 111.31 C89.12 116.23, 78.83 119.81, 69.08 120.88 C59.34 121.95, 47.82 121.45, 38.72 117.74 C29.62 114.02, 20.65 105.84, 14.48 98.6 C8.3 91.36, 3.57 83.37, 1.66 74.28 C-0.25 65.19, 0.35 53.17, 3.01 44.07 C5.67 34.98, 10.69 26.63, 17.63 19.71 C24.58 12.79, 39.85 5.33, 44.65 2.54 C49.46 -0.24, 46.24 1.94, 46.45 3 M73.15 0.85 C82.6 1.06, 93.11 6.25, 100.66 11.63 C108.21 17.02, 114.24 24.55, 118.44 33.16 C122.63 41.77, 125.81 53.77, 125.83 63.29 C125.84 72.82, 123.35 82.21, 118.53 90.3 C113.7 98.4, 105.39 106.74, 96.87 111.86 C88.35 116.99, 77.25 120.36, 67.38 121.06 C57.51 121.75, 46.57 119.54, 37.63 116.04 C28.68 112.53, 19.87 106.93, 13.71 100.02 C7.55 93.11, 2.42 83.87, 0.66 74.58 C-1.1 65.29, 0.3 53.74, 3.15 44.28 C5.99 34.82, 10.94 24.7, 17.75 17.82 C24.57 10.94, 34.95 5.65, 44.03 3.01 C53.1 0.38, 67.28 2.04, 72.21 2.03 C77.14 2.01, 73.65 1.93, 73.62 2.92" stroke="#1e1e1e" stroke-width="2" fill="none"></path></g><g transform="translate(213.23644383153453 861.6907960147031) rotate(0 6.55999755859375 12.5)"><text x="0" y="17.52" font-family="Virgil, Segoe UI Emoji" font-size="20px" fill="#1e1e1e" text-anchor="start" style="white-space: pre;" direction="ltr" dominant-baseline="alphabetic">A</text></g><g transform="translate(231.55530301394498 888.2826883762667) rotate(0 32.79666724592832 46.97900983876207)" stroke="none"><path fill="#e03131" d="M -0.93,-4.91 Q -0.93,-4.91 2.65,-5.44 6.25,-5.98 8.93,-6.74 11.62,-7.50 14.15,-8.11 16.68,-8.72 18.89,-9.94 21.11,-11.16 23.29,-11.79 25.48,-12.42 27.52,-11.76 29.56,-11.10 31.25,-7.71 32.93,-4.32 30.96,-0.80 28.99,2.71 26.89,4.39 24.79,6.07 21.39,8.14 17.99,10.21 15.11,12.01 12.23,13.81 8.80,16.07 5.37,18.34 3.39,19.54 1.42,20.74 -0.33,22.56 -2.10,24.38 -2.52,21.22 -2.95,18.06 -0.82,17.04 1.30,16.02 5.97,15.26 10.64,14.49 16.44,12.81 22.23,11.14 27.81,9.18 33.38,7.21 37.71,5.75 42.05,4.29 45.16,3.29 48.28,2.29 50.84,1.03 53.40,-0.23 57.20,0.55 61.00,1.33 61.83,3.41 62.65,5.49 62.94,7.86 63.23,10.23 63.09,12.44 62.96,14.66 61.35,17.26 59.74,19.87 57.46,21.91 55.18,23.95 53.33,25.13 51.47,26.31 47.16,27.64 42.85,28.97 38.67,29.98 34.49,31.00 30.66,32.26 26.82,33.53 23.80,34.48 20.79,35.44 18.54,36.35 16.30,37.26 13.53,38.20 10.75,39.14 8.21,40.17 5.67,41.20 2.94,42.44 0.21,43.67 -2.67,44.57 -5.55,45.46 -8.39,46.77 -11.23,48.08 -13.22,49.86 -15.21,51.64 -17.27,49.25 -19.34,46.86 -17.31,45.68 -15.27,44.49 -12.60,43.45 -9.93,42.41 -5.73,41.32 -1.53,40.22 3.56,39.07 8.65,37.92 14.05,36.70 19.46,35.48 23.23,34.47 27.00,33.46 29.20,32.79 31.40,32.11 34.28,30.77 37.16,29.43 40.70,28.52 44.25,27.61 47.81,26.94 51.36,26.27 53.65,25.69 55.94,25.12 58.95,24.35 61.96,23.57 64.75,23.23 67.53,22.90 70.21,23.44 72.89,23.98 75.65,24.71 78.40,25.44 80.26,26.72 82.12,28.00 83.17,29.91 84.21,31.82 84.40,34.59 84.59,37.37 83.33,40.18 82.06,42.99 79.86,44.92 77.65,46.86 74.13,48.44 70.61,50.02 64.85,51.54 59.09,53.06 53.99,54.36 48.90,55.67 44.30,56.81 39.70,57.95 36.07,58.97 32.45,60.00 29.52,61.15 26.59,62.30 23.85,63.50 21.10,64.70 18.33,65.81 15.55,66.91 13.38,67.80 11.21,68.69 8.32,69.60 5.43,70.50 2.85,71.27 0.27,72.04 -2.17,72.75 -4.62,73.45 -6.72,74.35 -8.82,75.25 -3.73,74.63 1.35,74.00 5.00,73.64 8.65,73.29 11.42,72.42 14.19,71.55 16.88,70.49 19.58,69.44 22.36,68.42 25.13,67.40 27.84,66.43 30.54,65.47 33.54,64.43 36.54,63.40 40.00,62.46 43.47,61.52 46.90,60.52 50.32,59.53 53.20,58.66 56.07,57.80 59.15,56.27 62.24,54.75 65.84,53.24 69.43,51.74 72.13,51.41 74.82,51.09 77.62,50.82 80.42,50.55 83.22,50.96 86.02,51.37 87.85,52.54 89.68,53.71 91.02,56.07 92.36,58.43 92.64,61.23 92.92,64.02 92.04,66.31 91.15,68.60 88.08,71.63 85.01,74.66 81.05,76.79 77.08,78.91 74.74,79.82 72.39,80.72 69.95,81.68 67.51,82.64 64.30,83.56 61.09,84.49 57.98,85.41 54.87,86.34 52.20,87.25 49.54,88.17 47.12,88.96 44.71,89.75 42.43,90.56 40.15,91.38 37.69,92.01 35.24,92.64 32.44,93.66 29.63,94.69 26.41,96.12 23.18,97.55 21.29,98.53 19.40,99.51 20.52,97.48 21.63,95.45 24.30,94.37 26.96,93.29 30.99,92.57 35.02,91.85 38.45,91.25 41.89,90.65 44.39,90.15 46.90,89.65 50.17,88.30 53.43,86.96 55.99,86.14 58.54,85.31 60.69,84.84 62.83,84.36 67.49,84.63 72.15,84.89 73.14,85.40 74.14,85.92 74.92,86.73 75.70,87.54 76.18,88.55 76.66,89.57 76.79,90.68 76.92,91.80 76.69,92.89 76.46,93.99 75.89,94.96 75.32,95.93 74.47,96.66 73.62,97.40 72.58,97.82 71.55,98.25 70.43,98.32 69.31,98.39 68.22,98.10 67.14,97.81 66.20,97.19 65.27,96.56 64.58,95.68 63.89,94.79 63.52,93.73 63.16,92.67 63.15,91.55 63.14,90.42 63.48,89.36 63.83,88.29 64.50,87.39 65.17,86.49 66.10,85.85 67.02,85.21 68.10,84.90 69.18,84.59 70.30,84.64 71.42,84.69 72.47,85.10 73.51,85.51 74.38,86.23 75.24,86.94 75.83,87.90 76.41,88.86 76.67,89.95 76.92,91.05 76.81,92.16 76.69,93.28 76.23,94.30 75.77,95.33 75.00,96.15 74.24,96.97 73.25,97.50 72.27,98.04 71.16,98.23 70.05,98.42 68.95,98.25 67.84,98.08 67.84,98.08 67.84,98.08 67.32,98.01 66.80,97.94 64.22,98.22 61.63,98.50 59.59,99.13 57.55,99.76 55.30,100.56 53.05,101.36 49.90,102.28 46.75,103.20 43.94,103.57 41.13,103.95 37.56,104.61 33.99,105.28 31.78,105.87 29.56,106.47 25.53,107.14 21.49,107.81 18.33,107.08 15.16,106.34 13.04,104.51 10.91,102.67 9.94,100.09 8.97,97.51 9.42,95.01 9.88,92.50 11.87,90.43 13.86,88.36 16.15,87.37 18.43,86.38 21.13,85.32 23.83,84.25 26.27,83.64 28.71,83.03 32.61,82.06 36.52,81.08 38.93,80.23 41.35,79.38 43.59,78.67 45.83,77.96 48.53,76.93 51.22,75.90 54.33,74.65 57.43,73.39 60.06,72.40 62.68,71.41 65.16,70.24 67.65,69.08 71.25,67.48 74.85,65.87 77.83,63.85 80.80,61.82 78.28,61.79 75.75,61.75 72.66,62.06 69.58,62.37 66.21,63.73 62.85,65.10 60.67,65.70 58.48,66.30 55.71,67.04 52.93,67.77 49.45,68.96 45.98,70.15 42.81,71.14 39.64,72.13 36.61,73.24 33.58,74.34 30.91,75.23 28.23,76.11 25.54,77.03 22.85,77.95 19.87,79.08 16.89,80.20 13.51,81.25 10.13,82.30 5.70,83.26 1.27,84.23 -3.15,84.59 -7.58,84.95 -10.25,84.76 -12.92,84.57 -16.39,81.69 -19.85,78.82 -19.84,75.66 -19.84,72.51 -18.62,70.59 -17.41,68.67 -14.93,67.39 -12.45,66.12 -9.75,65.12 -7.06,64.12 -4.62,63.56 -2.19,62.99 0.31,62.37 2.82,61.75 5.52,60.99 8.23,60.22 10.42,59.57 12.61,58.93 15.30,58.02 17.98,57.12 20.90,55.99 23.82,54.87 27.01,53.73 30.21,52.59 33.80,51.45 37.38,50.30 41.77,48.72 46.15,47.13 50.99,45.23 55.83,43.34 60.66,41.31 65.49,39.29 69.33,37.49 73.16,35.68 70.36,34.77 67.56,33.86 65.41,33.74 63.26,33.61 60.53,33.89 57.79,34.17 55.47,34.54 53.15,34.91 49.87,35.65 46.59,36.40 43.63,37.22 40.66,38.05 38.37,38.85 36.08,39.65 32.63,40.22 29.18,40.78 25.39,42.03 21.60,43.27 16.40,44.96 11.20,46.65 6.55,48.35 1.90,50.05 -1.63,51.66 -5.17,53.27 -7.92,54.61 -10.68,55.95 -13.23,56.92 -15.78,57.90 -19.42,57.57 -23.06,57.24 -24.76,52.81 -26.46,48.37 -24.31,45.48 -22.15,42.59 -20.14,41.27 -18.14,39.96 -15.21,38.72 -12.28,37.49 -10.20,36.90 -8.12,36.31 -5.88,35.76 -3.63,35.21 -0.68,33.86 2.26,32.50 5.09,31.43 7.91,30.35 10.57,29.54 13.23,28.73 15.78,27.91 18.34,27.09 21.00,26.38 23.67,25.66 27.61,23.80 31.56,21.94 35.28,20.40 39.01,18.85 43.30,16.71 47.60,14.56 50.05,12.54 52.51,10.52 54.32,9.36 56.13,8.21 53.27,8.96 50.42,9.71 47.55,10.43 44.69,11.16 40.54,12.95 36.40,14.75 30.82,17.26 25.24,19.77 19.18,22.22 13.12,24.67 7.49,26.41 1.86,28.16 -2.14,28.64 -6.15,29.12 -9.44,27.71 -12.74,26.31 -13.45,24.03 -14.15,21.76 -12.52,18.29 -10.89,14.82 -9.09,13.33 -7.29,11.83 -5.19,10.37 -3.09,8.91 -0.52,7.60 2.04,6.29 3.99,4.75 5.93,3.21 9.18,1.27 12.42,-0.65 15.05,-2.12 17.69,-3.59 19.68,-5.06 21.68,-6.53 22.39,-3.65 23.09,-0.77 20.91,-0.00 18.72,0.77 16.43,1.18 14.14,1.59 11.08,2.42 8.01,3.26 4.47,4.08 0.93,4.91 0.33,4.95 -0.26,4.99 -0.86,4.88 -1.45,4.78 -2.00,4.54 -2.55,4.29 -3.03,3.92 -3.51,3.56 -3.88,3.08 -4.26,2.61 -4.51,2.06 -4.76,1.52 -4.87,0.92 -4.98,0.33 -4.95,-0.26 -4.92,-0.86 -4.74,-1.44 -4.57,-2.02 -4.26,-2.53 -3.95,-3.05 -3.53,-3.48 -3.11,-3.91 -2.59,-4.23 -2.08,-4.54 -1.50,-4.72 -0.93,-4.91 -0.93,-4.91 L -0.93,-4.91 Z"></path></g><g transform="translate(385.13759056610036 865.7368623730096) rotate(0 7.269996643066406 12.5)"><text x="0" y="17.52" font-family="Virgil, Segoe UI Emoji" font-size="20px" fill="#1e1e1e" text-anchor="start" style="white-space: pre;" direction="ltr" dominant-baseline="alphabetic">B</text></g><g transform="translate(199.05410123870064 1024.7877358322926) rotate(0 203.4384274506103 25)"><text x="0" y="17.52" font-family="Virgil, Segoe UI Emoji" font-size="20px" fill="#e03131" text-anchor="start" style="white-space: pre;" direction="ltr" dominant-baseline="alphabetic">A left outer join B</text><text x="0" y="42.519999999999996" font-family="Virgil, Segoe UI Emoji" font-size="20px" fill="#e03131" text-anchor="start" style="white-space: pre;" direction="ltr" dominant-baseline="alphabetic">=&gt; all data in left table is preserved</text></g><g stroke-linecap="round" transform="translate(201.25964138418158 1109.1099599853878) rotate(0 62.934145255700344 60.86588696091212)"><path d="M33.56 6.97 C41.33 2.07, 54.11 -0.33, 63.78 -0.44 C73.46 -0.56, 82.94 1.93, 91.61 6.27 C100.29 10.61, 110.06 17.79, 115.84 25.58 C121.63 33.37, 125.5 43.36, 126.33 53.03 C127.16 62.69, 124.34 74.68, 120.85 83.56 C117.35 92.43, 112.58 100.32, 105.34 106.27 C98.1 112.21, 87.11 116.93, 77.4 119.24 C67.69 121.54, 56.45 122.3, 47.07 120.09 C37.69 117.89, 28.44 112.19, 21.11 106.03 C13.78 99.86, 6.66 91.96, 3.11 83.09 C-0.45 74.23, -1.66 62.29, -0.23 52.82 C1.21 43.35, 4.73 34.37, 11.73 26.25 C18.74 18.13, 35.03 7.99, 41.8 4.11 C48.57 0.22, 51.74 2.21, 52.34 2.93 M41.56 4.99 C50.17 0.83, 62.87 -1.62, 72.37 -0.56 C81.87 0.51, 90.95 5.68, 98.55 11.39 C106.14 17.09, 113.59 25.17, 117.92 33.66 C122.25 42.14, 124.58 52.7, 124.54 62.31 C124.5 71.92, 122.07 83.27, 117.68 91.31 C113.29 99.34, 106.13 105.45, 98.18 110.54 C90.23 115.63, 79.51 120.49, 69.99 121.85 C60.48 123.2, 50.26 122.12, 41.1 118.66 C31.93 115.19, 21.33 108.32, 15 101.07 C8.68 93.82, 5.38 84.39, 3.13 75.16 C0.87 65.92, -0.65 54.83, 1.48 45.65 C3.61 36.46, 9.48 27.04, 15.93 20.05 C22.38 13.06, 36 6.17, 40.17 3.7 C44.33 1.22, 40.29 4.34, 40.93 5.2" stroke="none" stroke-width="0" fill="#b2f2bb"></path><path d="M44.33 2.45 C52.94 -0.97, 64.84 -0.35, 74.37 1.58 C83.9 3.51, 93.81 8.15, 101.48 14.04 C109.16 19.93, 116.54 28.36, 120.42 36.94 C124.3 45.53, 125.57 56.08, 124.77 65.58 C123.97 75.07, 120.5 85.93, 115.6 93.91 C110.71 101.88, 103.79 108.76, 95.41 113.41 C87.03 118.07, 75.28 121.48, 65.31 121.84 C55.35 122.21, 44.51 119.66, 35.62 115.6 C26.72 111.55, 17.65 104.81, 11.96 97.5 C6.28 90.18, 2.94 80.93, 1.5 71.74 C0.06 62.54, 0.32 51.45, 3.32 42.31 C6.32 33.17, 10.56 23.89, 19.51 16.9 C28.45 9.91, 48.59 2.78, 57 0.37 C65.42 -2.03, 69.8 1.41, 69.99 2.49 M53.72 -0.09 C63 -2.43, 74.96 -1.14, 84.1 2.12 C93.24 5.39, 102 12.56, 108.56 19.51 C115.12 26.46, 120.55 35.02, 123.43 43.8 C126.32 52.59, 128.01 62.97, 125.88 72.23 C123.74 81.49, 117.1 91.7, 110.62 99.37 C104.15 107.03, 96.07 114.59, 87.02 118.21 C77.98 121.82, 65.77 122.09, 56.33 121.06 C46.88 120.02, 38.43 116.9, 30.37 112 C22.32 107.11, 13.15 99.96, 8.02 91.67 C2.9 83.38, -0.19 71.71, -0.39 62.26 C-0.6 52.82, 2.71 43.18, 6.81 35 C10.91 26.82, 16.42 18.65, 24.21 13.18 C32 7.71, 48.77 4.27, 53.56 2.19 C58.35 0.11, 53.07 0.13, 52.95 0.68" stroke="#1e1e1e" stroke-width="2" fill="none"></path></g><g stroke-linecap="round" transform="translate(278.3761292327157 1109.1099599853878) rotate(0 62.93414525570029 60.86588696091212)"><path d="M90.41 5.15 C99.09 8.33, 106.88 16.71, 112.74 24.26 C118.61 31.81, 124.06 41.32, 125.59 50.46 C127.11 59.6, 124.87 70.25, 121.88 79.12 C118.88 87.99, 114.36 97.12, 107.64 103.69 C100.91 110.25, 91.18 115.55, 81.53 118.5 C71.88 121.45, 59.28 123.17, 49.72 121.39 C40.16 119.61, 31.66 114.01, 24.18 107.8 C16.69 101.59, 8.88 92.69, 4.8 84.12 C0.71 75.55, -1.16 65.67, -0.34 56.37 C0.49 47.06, 4.63 36.16, 9.75 28.29 C14.88 20.42, 22.12 13.94, 30.41 9.16 C38.69 4.38, 49.22 0.01, 59.47 -0.38 C69.72 -0.77, 86.53 5.16, 91.9 6.8 C97.27 8.43, 92.19 8.43, 91.67 9.44 M83.37 3.77 C92.61 6.26, 102.22 13.94, 109.1 20.57 C115.99 27.21, 122.26 34.69, 124.69 43.59 C127.11 52.5, 126.09 64.53, 123.66 73.99 C121.22 83.46, 116.42 93.07, 110.07 100.38 C103.71 107.69, 94.46 114.1, 85.53 117.86 C76.59 121.62, 65.91 124.1, 56.45 122.96 C46.98 121.82, 36.78 116.36, 28.75 111.05 C20.72 105.73, 12.86 98.98, 8.27 91.09 C3.68 83.19, 1.58 73.12, 1.23 63.68 C0.87 54.24, 1.78 43.05, 6.12 34.47 C10.45 25.88, 19.43 17.81, 27.26 12.19 C35.09 6.57, 43.78 2.19, 53.11 0.74 C62.43 -0.71, 78.4 2.86, 83.22 3.49 C88.04 4.12, 82.46 3.54, 82.04 4.54" stroke="none" stroke-width="0" fill="#ffc9c9"></path><path d="M91.06 7.23 C99.5 10.62, 108.19 18.15, 113.78 25.87 C119.37 33.59, 123.41 44.08, 124.61 53.54 C125.82 63, 124.31 73.81, 121 82.63 C117.69 91.45, 112 100.21, 104.75 106.45 C97.5 112.69, 87.03 117.67, 77.5 120.08 C67.96 122.49, 56.77 123.14, 47.56 120.92 C38.34 118.7, 29.49 113.06, 22.18 106.75 C14.87 100.43, 7.42 91.9, 3.67 83.03 C-0.07 74.16, -1.36 62.97, -0.31 53.53 C0.74 44.09, 4.28 33.99, 9.98 26.38 C15.69 18.77, 25.13 12.22, 33.92 7.88 C42.71 3.54, 51.58 -0.26, 62.71 0.34 C73.83 0.94, 93.33 8.35, 100.67 11.46 C108 14.58, 107.29 18, 106.72 19.04 M78.81 1.31 C87.97 2.73, 99.07 9.05, 106.5 15.43 C113.93 21.81, 120.23 30.43, 123.37 39.58 C126.51 48.73, 126.92 60.87, 125.34 70.33 C123.75 79.79, 119.4 88.99, 113.87 96.35 C108.34 103.7, 101.06 110.25, 92.16 114.45 C83.26 118.66, 70.52 121.45, 60.48 121.6 C50.44 121.75, 40.53 119.99, 31.94 115.36 C23.35 110.72, 13.99 101.91, 8.92 93.78 C3.85 85.64, 2.28 75.76, 1.51 66.54 C0.74 57.32, 0.91 47.29, 4.31 38.44 C7.71 29.59, 14.28 19.57, 21.89 13.46 C29.51 7.36, 40.58 3.52, 49.99 1.81 C59.41 0.1, 73.45 2.71, 78.4 3.19 C83.35 3.68, 79.82 4.15, 79.68 4.73" stroke="#1e1e1e" stroke-width="2" fill="none"></path></g><g transform="translate(213.66919115291125 1094.3366864511859) rotate(0 6.55999755859375 12.5)"><text x="0" y="17.52" font-family="Virgil, Segoe UI Emoji" font-size="20px" fill="#1e1e1e" text-anchor="start" style="white-space: pre;" direction="ltr" dominant-baseline="alphabetic">A</text></g><g transform="translate(385.5703378874771 1098.382752809492) rotate(0 7.269996643066406 12.5)"><text x="0" y="17.52" font-family="Virgil, Segoe UI Emoji" font-size="20px" fill="#1e1e1e" text-anchor="start" style="white-space: pre;" direction="ltr" dominant-baseline="alphabetic">B</text></g><g transform="translate(199.48684856007742 1257.4336262687752) rotate(0 203.43842745061033 25)"><text x="0" y="17.52" font-family="Virgil, Segoe UI Emoji" font-size="20px" fill="#e03131" text-anchor="start" style="white-space: pre;" direction="ltr" dominant-baseline="alphabetic">A right outer join B</text><text x="0" y="42.519999999999996" font-family="Virgil, Segoe UI Emoji" font-size="20px" fill="#e03131" text-anchor="start" style="white-space: pre;" direction="ltr" dominant-baseline="alphabetic">=&gt; all data in right table is preserved</text></g><g transform="translate(310.58186553727603 1121.5195097541173) rotate(0 32.79666724592835 46.97900983876207)" stroke="none"><path fill="#e03131" d="M -0.93,-4.91 Q -0.93,-4.91 2.65,-5.44 6.25,-5.98 8.93,-6.74 11.62,-7.50 14.15,-8.11 16.68,-8.72 18.89,-9.94 21.11,-11.16 23.29,-11.79 25.48,-12.42 27.52,-11.76 29.56,-11.10 31.25,-7.71 32.93,-4.32 30.96,-0.80 28.99,2.71 26.89,4.39 24.79,6.07 21.39,8.14 17.99,10.21 15.11,12.01 12.23,13.81 8.80,16.07 5.37,18.34 3.39,19.54 1.42,20.74 -0.33,22.56 -2.10,24.38 -2.52,21.22 -2.95,18.06 -0.82,17.04 1.30,16.02 5.97,15.26 10.64,14.49 16.44,12.81 22.23,11.14 27.81,9.18 33.38,7.21 37.71,5.75 42.05,4.29 45.16,3.29 48.28,2.29 50.84,1.03 53.40,-0.23 57.20,0.55 61.00,1.33 61.83,3.41 62.65,5.49 62.94,7.86 63.23,10.23 63.09,12.44 62.96,14.66 61.35,17.26 59.74,19.87 57.46,21.91 55.18,23.95 53.33,25.13 51.47,26.31 47.16,27.64 42.85,28.97 38.67,29.98 34.49,31.00 30.66,32.26 26.82,33.53 23.80,34.48 20.79,35.44 18.54,36.35 16.30,37.26 13.53,38.20 10.75,39.14 8.21,40.17 5.67,41.20 2.94,42.44 0.21,43.67 -2.67,44.57 -5.55,45.46 -8.39,46.77 -11.23,48.08 -13.22,49.86 -15.21,51.64 -17.27,49.25 -19.34,46.86 -17.31,45.68 -15.27,44.49 -12.60,43.45 -9.93,42.41 -5.73,41.32 -1.53,40.22 3.56,39.07 8.65,37.92 14.05,36.70 19.46,35.48 23.23,34.47 27.00,33.46 29.20,32.79 31.40,32.11 34.28,30.77 37.16,29.43 40.70,28.52 44.25,27.61 47.81,26.94 51.36,26.27 53.65,25.69 55.94,25.12 58.95,24.35 61.96,23.57 64.75,23.23 67.53,22.90 70.21,23.44 72.89,23.98 75.65,24.71 78.40,25.44 80.26,26.72 82.12,28.00 83.17,29.91 84.21,31.82 84.40,34.59 84.59,37.37 83.33,40.18 82.06,42.99 79.86,44.92 77.65,46.86 74.13,48.44 70.61,50.02 64.85,51.54 59.09,53.06 53.99,54.36 48.90,55.67 44.30,56.81 39.70,57.95 36.07,58.97 32.45,60.00 29.52,61.15 26.59,62.30 23.85,63.50 21.10,64.70 18.33,65.81 15.55,66.91 13.38,67.80 11.21,68.69 8.32,69.60 5.43,70.50 2.85,71.27 0.27,72.04 -2.17,72.75 -4.62,73.45 -6.72,74.35 -8.82,75.25 -3.73,74.63 1.35,74.00 5.00,73.64 8.65,73.29 11.42,72.42 14.19,71.55 16.88,70.49 19.58,69.44 22.36,68.42 25.13,67.40 27.84,66.43 30.54,65.47 33.54,64.43 36.54,63.40 40.00,62.46 43.47,61.52 46.90,60.52 50.32,59.53 53.20,58.66 56.07,57.80 59.15,56.27 62.24,54.75 65.84,53.24 69.43,51.74 72.13,51.41 74.82,51.09 77.62,50.82 80.42,50.55 83.22,50.96 86.02,51.37 87.85,52.54 89.68,53.71 91.02,56.07 92.36,58.43 92.64,61.23 92.92,64.02 92.04,66.31 91.15,68.60 88.08,71.63 85.01,74.66 81.05,76.79 77.08,78.91 74.74,79.82 72.39,80.72 69.95,81.68 67.51,82.64 64.30,83.56 61.09,84.49 57.98,85.41 54.87,86.34 52.20,87.25 49.54,88.17 47.12,88.96 44.71,89.75 42.43,90.56 40.15,91.38 37.69,92.01 35.24,92.64 32.44,93.66 29.63,94.69 26.41,96.12 23.18,97.55 21.29,98.53 19.40,99.51 20.52,97.48 21.63,95.45 24.30,94.37 26.96,93.29 30.99,92.57 35.02,91.85 38.45,91.25 41.89,90.65 44.39,90.15 46.90,89.65 50.17,88.30 53.43,86.96 55.99,86.14 58.54,85.31 60.69,84.84 62.83,84.36 67.49,84.63 72.15,84.89 73.14,85.40 74.14,85.92 74.92,86.73 75.70,87.54 76.18,88.55 76.66,89.57 76.79,90.68 76.92,91.80 76.69,92.89 76.46,93.99 75.89,94.96 75.32,95.93 74.47,96.66 73.62,97.40 72.58,97.82 71.55,98.25 70.43,98.32 69.31,98.39 68.22,98.10 67.14,97.81 66.20,97.19 65.27,96.56 64.58,95.68 63.89,94.79 63.52,93.73 63.16,92.67 63.15,91.55 63.14,90.42 63.48,89.36 63.83,88.29 64.50,87.39 65.17,86.49 66.10,85.85 67.02,85.21 68.10,84.90 69.18,84.59 70.30,84.64 71.42,84.69 72.47,85.10 73.51,85.51 74.38,86.23 75.24,86.94 75.83,87.90 76.41,88.86 76.67,89.95 76.92,91.05 76.81,92.16 76.69,93.28 76.23,94.30 75.77,95.33 75.00,96.15 74.24,96.97 73.25,97.50 72.27,98.04 71.16,98.23 70.05,98.42 68.95,98.25 67.84,98.08 67.84,98.08 67.84,98.08 67.32,98.01 66.80,97.94 64.22,98.22 61.63,98.50 59.59,99.13 57.55,99.76 55.30,100.56 53.05,101.36 49.90,102.28 46.75,103.20 43.94,103.57 41.13,103.95 37.56,104.61 33.99,105.28 31.78,105.87 29.56,106.47 25.53,107.14 21.49,107.81 18.33,107.08 15.16,106.34 13.04,104.51 10.91,102.67 9.94,100.09 8.97,97.51 9.42,95.01 9.88,92.50 11.87,90.43 13.86,88.36 16.15,87.37 18.43,86.38 21.13,85.32 23.83,84.25 26.27,83.64 28.71,83.03 32.61,82.06 36.52,81.08 38.93,80.23 41.35,79.38 43.59,78.67 45.83,77.96 48.53,76.93 51.22,75.90 54.33,74.65 57.43,73.39 60.06,72.40 62.68,71.41 65.16,70.24 67.65,69.08 71.25,67.48 74.85,65.87 77.83,63.85 80.80,61.82 78.28,61.79 75.75,61.75 72.66,62.06 69.58,62.37 66.21,63.73 62.85,65.10 60.67,65.70 58.48,66.30 55.71,67.04 52.93,67.77 49.45,68.96 45.98,70.15 42.81,71.14 39.64,72.13 36.61,73.24 33.58,74.34 30.91,75.23 28.23,76.11 25.54,77.03 22.85,77.95 19.87,79.08 16.89,80.20 13.51,81.25 10.13,82.30 5.70,83.26 1.27,84.23 -3.15,84.59 -7.58,84.95 -10.25,84.76 -12.92,84.57 -16.39,81.69 -19.85,78.82 -19.84,75.66 -19.84,72.51 -18.62,70.59 -17.41,68.67 -14.93,67.39 -12.45,66.12 -9.75,65.12 -7.06,64.12 -4.62,63.56 -2.19,62.99 0.31,62.37 2.82,61.75 5.52,60.99 8.23,60.22 10.42,59.57 12.61,58.93 15.30,58.02 17.98,57.12 20.90,55.99 23.82,54.87 27.01,53.73 30.21,52.59 33.80,51.45 37.38,50.30 41.77,48.72 46.15,47.13 50.99,45.23 55.83,43.34 60.66,41.31 65.49,39.29 69.33,37.49 73.16,35.68 70.36,34.77 67.56,33.86 65.41,33.74 63.26,33.61 60.53,33.89 57.79,34.17 55.47,34.54 53.15,34.91 49.87,35.65 46.59,36.40 43.63,37.22 40.66,38.05 38.37,38.85 36.08,39.65 32.63,40.22 29.18,40.78 25.39,42.03 21.60,43.27 16.40,44.96 11.20,46.65 6.55,48.35 1.90,50.05 -1.63,51.66 -5.17,53.27 -7.92,54.61 -10.68,55.95 -13.23,56.92 -15.78,57.90 -19.42,57.57 -23.06,57.24 -24.76,52.81 -26.46,48.37 -24.31,45.48 -22.15,42.59 -20.14,41.27 -18.14,39.96 -15.21,38.72 -12.28,37.49 -10.20,36.90 -8.12,36.31 -5.88,35.76 -3.63,35.21 -0.68,33.86 2.26,32.50 5.09,31.43 7.91,30.35 10.57,29.54 13.23,28.73 15.78,27.91 18.34,27.09 21.00,26.38 23.67,25.66 27.61,23.80 31.56,21.94 35.28,20.40 39.01,18.85 43.30,16.71 47.60,14.56 50.05,12.54 52.51,10.52 54.32,9.36 56.13,8.21 53.27,8.96 50.42,9.71 47.55,10.43 44.69,11.16 40.54,12.95 36.40,14.75 30.82,17.26 25.24,19.77 19.18,22.22 13.12,24.67 7.49,26.41 1.86,28.16 -2.14,28.64 -6.15,29.12 -9.44,27.71 -12.74,26.31 -13.45,24.03 -14.15,21.76 -12.52,18.29 -10.89,14.82 -9.09,13.33 -7.29,11.83 -5.19,10.37 -3.09,8.91 -0.52,7.60 2.04,6.29 3.99,4.75 5.93,3.21 9.18,1.27 12.42,-0.65 15.05,-2.12 17.69,-3.59 19.68,-5.06 21.68,-6.53 22.39,-3.65 23.09,-0.77 20.91,-0.00 18.72,0.77 16.43,1.18 14.14,1.59 11.08,2.42 8.01,3.26 4.47,4.08 0.93,4.91 0.33,4.95 -0.26,4.99 -0.86,4.88 -1.45,4.78 -2.00,4.54 -2.55,4.29 -3.03,3.92 -3.51,3.56 -3.88,3.08 -4.26,2.61 -4.51,2.06 -4.76,1.52 -4.87,0.92 -4.98,0.33 -4.95,-0.26 -4.92,-0.86 -4.74,-1.44 -4.57,-2.02 -4.26,-2.53 -3.95,-3.05 -3.53,-3.48 -3.11,-3.91 -2.59,-4.23 -2.08,-4.54 -1.50,-4.72 -0.93,-4.91 -0.93,-4.91 L -0.93,-4.91 Z"></path></g><g stroke-linecap="round" transform="translate(274.2396126431391 1357.8918863013482) rotate(0 62.934145255700315 60.86588696091212)"><path d="M78.93 3.04 C88.21 4.29, 98.96 9.33, 106.23 15.44 C113.49 21.55, 119.19 30.67, 122.51 39.71 C125.84 48.76, 127.75 60.12, 126.19 69.72 C124.63 79.31, 119.07 89.73, 113.14 97.28 C107.21 104.82, 99.09 111.04, 90.61 114.98 C82.13 118.92, 71.92 120.92, 62.27 120.93 C52.62 120.95, 41.49 119.42, 32.72 115.05 C23.95 110.68, 15.11 102.61, 9.64 94.72 C4.18 86.83, 0.84 77.08, -0.05 67.7 C-0.94 58.32, 0.58 47.4, 4.31 38.43 C8.03 29.46, 14.96 20.06, 22.3 13.87 C29.63 7.68, 38.52 3.08, 48.31 1.31 C58.1 -0.45, 74.91 2.67, 81.04 3.27 C87.18 3.87, 85.17 3.89, 85.1 4.92 M42.6 4.24 C50.89 0.46, 61.41 0.57, 70.86 1.6 C80.3 2.63, 91.02 5.13, 99.27 10.39 C107.52 15.65, 116.15 24.56, 120.37 33.16 C124.59 41.76, 124.94 52.32, 124.6 61.99 C124.25 71.65, 122.55 82.79, 118.3 91.16 C114.04 99.54, 107.23 107.26, 99.06 112.23 C90.89 117.19, 79.12 119.99, 69.29 120.97 C59.47 121.95, 49.35 121.55, 40.11 118.1 C30.87 114.66, 20.13 107.57, 13.85 100.31 C7.57 93.05, 4.56 83.81, 2.42 74.56 C0.29 65.3, -1.29 54.04, 1.05 44.78 C3.4 35.52, 9.66 25.74, 16.48 19.02 C23.3 12.29, 37.63 6.97, 41.97 4.43 C46.31 1.88, 42.21 3.04, 42.53 3.77" stroke="none" stroke-width="0" fill="#ffc9c9"></path><path d="M81.51 3.9 C90.66 5.57, 100.93 10.94, 107.98 17.42 C115.04 23.91, 121.2 33.52, 123.83 42.79 C126.47 52.05, 125.86 63.82, 123.78 73.03 C121.7 82.24, 117.21 90.64, 111.35 98.04 C105.49 105.43, 97.3 113.56, 88.62 117.4 C79.94 121.24, 69.21 122.03, 59.27 121.08 C49.33 120.13, 37.27 116.53, 28.99 111.69 C20.72 106.86, 14.58 100, 9.64 92.05 C4.71 84.1, 0.12 73.57, -0.59 64.02 C-1.3 54.46, 1.15 43.32, 5.39 34.73 C9.62 26.13, 16.87 18.17, 24.83 12.45 C32.79 6.72, 42.8 1.73, 53.14 0.36 C63.48 -1, 80.81 3.21, 86.87 4.26 C92.93 5.31, 89.77 5.6, 89.5 6.67 M85.68 4.16 C94.89 6.87, 104.83 14.39, 111.26 21.45 C117.7 28.5, 122.23 37.36, 124.29 46.47 C126.36 55.57, 126.28 67.09, 123.67 76.07 C121.05 85.06, 115.28 93.25, 108.62 100.38 C101.96 107.5, 92.81 115.54, 83.71 118.81 C74.6 122.08, 63.65 121.11, 53.98 120 C44.32 118.89, 33.59 117.19, 25.72 112.17 C17.86 107.14, 10.89 98.57, 6.79 89.85 C2.69 81.14, 1.14 69.23, 1.13 59.89 C1.12 50.54, 2.56 41.97, 6.72 33.78 C10.89 25.6, 17.77 16.43, 26.12 10.78 C34.48 5.13, 46.97 1.14, 56.85 -0.11 C66.73 -1.36, 80.97 2.3, 85.41 3.29 C89.86 4.29, 84.13 4.84, 83.52 5.87" stroke="#1e1e1e" stroke-width="2" fill="none"></path></g><g stroke-linecap="round" transform="translate(197.71405573597303 1357.8918863013482) rotate(0 62.934145255700344 60.86588696091212)"><path d="M78.53 1.11 C87.84 2.09, 97.52 8.17, 104.88 14.57 C112.23 20.97, 119.38 30.47, 122.65 39.53 C125.93 48.59, 125.91 59.71, 124.52 68.96 C123.13 78.21, 119.57 87.53, 114.29 95.02 C109.01 102.51, 101.35 109.31, 92.83 113.9 C84.31 118.49, 73.13 122.37, 63.16 122.56 C53.19 122.75, 41.71 119.44, 32.99 115.05 C24.27 110.65, 16.31 103.94, 10.85 96.2 C5.4 88.45, 1.37 78.14, 0.27 68.56 C-0.83 58.98, 0.89 47.62, 4.24 38.73 C7.59 29.84, 13.29 21.3, 20.38 15.22 C27.47 9.13, 35.79 4.08, 46.77 2.22 C57.76 0.36, 78.61 2.88, 86.29 4.06 C93.97 5.23, 93.46 8.3, 92.85 9.26 M68.39 1.33 C77.48 1.05, 88.75 4.09, 97.22 9.05 C105.69 14, 114.64 22.63, 119.2 31.05 C123.76 39.47, 124.54 49.93, 124.58 59.59 C124.62 69.26, 123.35 80.49, 119.43 89.03 C115.52 97.58, 109.04 105.58, 101.09 110.85 C93.14 116.12, 81.52 119.32, 71.75 120.66 C61.97 122.01, 51.81 122.03, 42.44 118.94 C33.06 115.84, 22.07 109.1, 15.5 102.09 C8.94 95.08, 5.54 86.04, 3.04 76.88 C0.53 67.72, -1.49 56.45, 0.48 47.11 C2.45 37.77, 8.32 27.79, 14.85 20.82 C21.38 13.85, 30.54 8.9, 39.66 5.29 C48.78 1.69, 64.67 -0.06, 69.58 -0.8 C74.49 -1.54, 69.15 -0.37, 69.11 0.87" stroke="none" stroke-width="0" fill="#b2f2bb"></path><path d="M78.92 1.14 C88.34 2.28, 98.89 8.72, 105.92 15.31 C112.96 21.89, 118.02 31.84, 121.13 40.65 C124.23 49.46, 125.64 58.8, 124.56 68.17 C123.48 77.55, 120.06 89.15, 114.67 96.89 C109.27 104.63, 101.09 110.65, 92.19 114.63 C83.28 118.61, 70.97 120.78, 61.24 120.78 C51.52 120.77, 42.37 118.91, 33.83 114.58 C25.29 110.26, 15.64 102.81, 10 94.84 C4.35 86.87, 0.85 76.19, -0.05 66.78 C-0.95 57.37, 0.81 47.14, 4.62 38.39 C8.42 29.63, 15.39 20.42, 22.77 14.25 C30.16 8.08, 38.73 3.23, 48.94 1.36 C59.15 -0.5, 77.01 1.98, 84.04 3.06 C91.07 4.15, 91.2 6.82, 91.1 7.87 M37.37 6.6 C45.35 1.97, 56.51 -0.26, 66 0.11 C75.49 0.48, 86.16 4.24, 94.32 8.83 C102.48 13.42, 109.96 19.58, 114.95 27.65 C119.94 35.72, 123.51 47.91, 124.26 57.25 C125.01 66.6, 123.32 75.02, 119.47 83.72 C115.62 92.42, 108.57 103.2, 101.14 109.48 C93.7 115.75, 84.01 119.88, 74.86 121.37 C65.71 122.85, 55.65 120.97, 46.26 118.38 C36.88 115.8, 25.96 112.27, 18.57 105.86 C11.19 99.45, 4.7 89.2, 1.98 79.93 C-0.74 70.66, 0.43 59.7, 2.25 50.27 C4.06 40.84, 7.42 30.66, 12.85 23.36 C18.28 16.06, 31.08 9.27, 34.83 6.48 C38.58 3.7, 34.45 6.03, 35.35 6.63" stroke="#1e1e1e" stroke-width="2" fill="none"></path></g><g transform="translate(209.53267456333464 1343.1186127671463) rotate(0 6.55999755859375 12.5)"><text x="0" y="17.52" font-family="Virgil, Segoe UI Emoji" font-size="20px" fill="#1e1e1e" text-anchor="start" style="white-space: pre;" direction="ltr" dominant-baseline="alphabetic">A</text></g><g transform="translate(381.4338212979004 1347.1646791254525) rotate(0 7.269996643066406 12.5)"><text x="0" y="17.52" font-family="Virgil, Segoe UI Emoji" font-size="20px" fill="#1e1e1e" text-anchor="start" style="white-space: pre;" direction="ltr" dominant-baseline="alphabetic">B</text></g><g transform="translate(195.3503319705007 1506.2155525847356) rotate(0 167.09617455647353 37.5)"><text x="0" y="17.52" font-family="Virgil, Segoe UI Emoji" font-size="20px" fill="#e03131" text-anchor="start" style="white-space: pre;" direction="ltr" dominant-baseline="alphabetic">A inner join B</text><text x="0" y="42.519999999999996" font-family="Virgil, Segoe UI Emoji" font-size="20px" fill="#e03131" text-anchor="start" style="white-space: pre;" direction="ltr" dominant-baseline="alphabetic">=&gt; all data satisfying the </text><text x="0" y="67.52" font-family="Virgil, Segoe UI Emoji" font-size="20px" fill="#e03131" text-anchor="start" style="white-space: pre;" direction="ltr" dominant-baseline="alphabetic">condition is preserved</text></g><g transform="translate(295.9667756230655 1378.1644387704036) rotate(0 8.86396412052116 40.18330401302933)" stroke="none"><path fill="#e03131" d="M 0,-5.10 Q 0,-5.10 1.69,-5.19 3.39,-5.28 5.63,-5.43 7.87,-5.57 10.46,-4.42 13.05,-3.27 14.86,-0.86 16.68,1.54 17.03,4.00 17.38,6.46 16.76,9.20 16.14,11.95 14.68,14.40 13.21,16.85 11.71,18.65 10.21,20.46 8.25,21.97 6.29,23.48 5.23,21.32 4.17,19.16 7.81,19.00 11.45,18.85 14.00,18.91 16.54,18.98 19.60,20.26 22.66,21.54 23.87,23.85 25.08,26.15 25.23,29.07 25.38,32.00 24.90,34.19 24.42,36.38 23.35,38.30 22.28,40.22 19.58,42.82 16.89,45.43 13.56,47.05 10.23,48.67 8.13,49.35 6.04,50.03 2.99,51.05 -0.06,52.07 0.04,49.81 0.15,47.55 2.44,47.92 4.73,48.28 7.77,48.36 10.81,48.43 14.25,48.50 17.69,48.56 20.89,48.82 24.08,49.09 26.49,50.65 28.90,52.20 29.81,55.04 30.72,57.87 29.99,61.83 29.27,65.78 24.95,68.52 20.63,71.26 18.21,71.77 15.78,72.28 12.99,72.83 10.19,73.38 7.40,74.35 4.61,75.32 5.57,73.12 6.53,70.92 9.46,74.84 12.38,78.76 12.43,79.94 12.47,81.11 12.14,82.23 11.80,83.35 11.13,84.31 10.45,85.27 9.51,85.96 8.56,86.66 7.44,87.01 6.32,87.37 5.15,87.35 3.98,87.32 2.88,86.93 1.77,86.54 0.85,85.81 -0.06,85.08 -0.70,84.10 -1.34,83.12 -1.63,81.98 -1.93,80.85 -1.84,79.68 -1.76,78.51 -1.30,77.43 -0.85,76.35 -0.08,75.47 0.69,74.59 1.70,74.00 2.72,73.42 3.87,73.18 5.02,72.95 6.18,73.10 7.34,73.25 8.40,73.76 9.45,74.27 10.29,75.09 11.13,75.91 11.66,76.96 12.19,78.01 12.36,79.17 12.53,80.33 12.31,81.48 12.10,82.63 11.54,83.66 10.97,84.68 10.10,85.47 9.24,86.27 8.16,86.74 7.09,87.21 5.92,87.32 4.76,87.42 3.62,87.15 2.48,86.88 1.48,86.25 0.49,85.63 -0.24,84.73 -0.99,83.82 -1.40,82.72 -1.81,81.62 -1.81,81.63 -1.81,81.63 -2.82,81.10 -3.82,80.58 -5.40,77.98 -6.97,75.38 -6.69,71.39 -6.41,67.41 -3.86,65.00 -1.31,62.60 1.47,61.43 4.27,60.27 6.81,59.87 9.36,59.47 12.68,58.67 16.01,57.87 16.84,60.20 17.68,62.52 14.22,62.58 10.76,62.63 7.47,62.66 4.18,62.69 1.51,62.49 -1.15,62.30 -3.94,61.23 -6.73,60.16 -8.46,58.80 -10.19,57.43 -11.25,55.47 -12.31,53.52 -12.62,51.31 -12.92,49.10 -12.30,46.78 -11.68,44.46 -9.18,42.20 -6.68,39.95 -4.24,39.04 -1.80,38.12 1.36,36.95 4.52,35.77 6.54,34.85 8.55,33.93 10.44,32.52 12.32,31.12 14.31,32.06 16.31,32.99 13.87,32.85 11.43,32.72 9.09,32.36 6.75,32.00 3.23,31.38 -0.28,30.75 -2.54,29.43 -4.80,28.10 -6.15,24.07 -7.49,20.04 -5.40,17.06 -3.31,14.07 -0.78,12.39 1.74,10.70 2.57,7.99 3.39,5.28 1.69,5.19 0,5.10 -0.61,5.03 -1.22,4.96 -1.79,4.74 -2.37,4.52 -2.88,4.17 -3.38,3.82 -3.79,3.36 -4.20,2.90 -4.49,2.35 -4.77,1.81 -4.92,1.21 -5.07,0.61 -5.07,-0.00 -5.07,-0.61 -4.92,-1.21 -4.77,-1.81 -4.49,-2.35 -4.20,-2.90 -3.79,-3.36 -3.38,-3.82 -2.88,-4.17 -2.37,-4.52 -1.79,-4.74 -1.22,-4.96 -0.61,-5.03 0.00,-5.10 0.00,-5.10 L 0,-5.10 Z"></path></g><g transform="translate(297.7395684471697 1463.8494252687751) rotate(0 -8.27303317915306 -44.9107515439739)" stroke="none"><path fill="#e03131" d="M -4.44,2.77 Q -4.44,2.77 -5.36,1.46 -6.28,0.14 -7.94,-2.03 -9.60,-4.21 -11.23,-6.23 -12.87,-8.24 -14.68,-11.06 -16.49,-13.87 -17.66,-16.48 -18.83,-19.09 -19.53,-21.81 -20.22,-24.54 -20.98,-27.32 -21.74,-30.11 -22.07,-32.21 -22.41,-34.31 -22.88,-37.35 -23.36,-40.39 -23.74,-42.57 -24.13,-44.74 -24.20,-47.72 -24.28,-50.69 -24.27,-53.12 -24.27,-55.54 -24.26,-58.19 -24.24,-60.85 -23.77,-62.98 -23.30,-65.12 -22.67,-67.39 -22.04,-69.66 -21.18,-72.41 -20.32,-75.16 -19.59,-77.19 -18.86,-79.22 -17.65,-81.83 -16.44,-84.43 -14.62,-86.91 -12.80,-89.40 -10.35,-91.65 -7.90,-93.91 -5.62,-95.25 -3.35,-96.59 -2.19,-96.82 -1.03,-97.05 0.14,-96.90 1.31,-96.75 2.37,-96.24 3.44,-95.72 4.28,-94.89 5.12,-94.06 5.66,-93.00 6.19,-91.95 6.36,-90.78 6.53,-89.60 6.31,-88.44 6.10,-87.28 5.53,-86.24 4.95,-85.21 4.08,-84.41 3.20,-83.62 2.12,-83.14 1.04,-82.66 -0.13,-82.56 -1.31,-82.45 -2.46,-82.73 -3.61,-83.01 -4.61,-83.64 -5.61,-84.27 -6.36,-85.18 -7.11,-86.10 -7.53,-87.21 -7.94,-88.31 -7.98,-89.50 -8.02,-90.68 -7.69,-91.81 -7.35,-92.95 -6.66,-93.91 -5.98,-94.88 -5.03,-95.58 -4.07,-96.27 -2.94,-96.63 -1.81,-96.98 -0.63,-96.96 0.54,-96.94 1.66,-96.54 2.77,-96.14 3.70,-95.40 4.62,-94.67 5.27,-93.68 5.91,-92.69 6.21,-91.54 6.50,-90.39 6.41,-89.21 6.33,-88.03 5.87,-86.94 5.41,-85.85 4.62,-84.97 3.84,-84.08 2.82,-83.49 1.79,-82.90 1.79,-82.90 1.79,-82.90 1.35,-82.82 0.90,-82.73 -0.66,-81.19 -2.22,-79.65 -3.77,-77.04 -5.31,-74.42 -6.18,-72.27 -7.05,-70.12 -7.72,-67.86 -8.40,-65.60 -9.21,-63.15 -10.02,-60.70 -10.01,-58.12 -9.99,-55.54 -9.99,-52.26 -10.00,-48.97 -10.03,-46.66 -10.05,-44.35 -9.50,-41.17 -8.94,-37.98 -8.63,-35.36 -8.33,-32.74 -7.84,-30.55 -7.35,-28.36 -6.81,-25.62 -6.27,-22.89 -5.44,-20.58 -4.62,-18.27 -3.30,-15.94 -1.99,-13.60 -0.69,-11.54 0.60,-9.49 1.74,-7.53 2.88,-5.58 3.66,-4.18 4.44,-2.77 4.71,-2.20 4.98,-1.63 5.10,-1.01 5.22,-0.39 5.19,0.23 5.16,0.86 4.99,1.47 4.81,2.08 4.49,2.62 4.17,3.17 3.73,3.62 3.29,4.07 2.75,4.41 2.22,4.74 1.62,4.94 1.02,5.14 0.39,5.18 -0.23,5.23 -0.86,5.13 -1.48,5.02 -2.06,4.77 -2.64,4.52 -3.14,4.14 -3.65,3.76 -4.04,3.26 -4.44,2.77 -4.44,2.77 L -4.44,2.77 Z"></path></g><g transform="translate(293.6030518575932 898.9194453208921) rotate(0 11.523153356677511 38.705976659609064)" stroke="none"><path fill="#f08c00" d="M -0.63,-5.11 Q -0.63,-5.11 0.70,-5.36 2.05,-5.62 4.59,-6.18 7.12,-6.73 9.46,-6.93 11.80,-7.12 14.86,-5.29 17.92,-3.46 18.53,-0.29 19.14,2.87 18.01,5.95 16.87,9.03 15.12,11.09 13.36,13.16 11.05,14.68 8.74,16.21 5.25,17.98 1.76,19.75 0.66,16.92 -0.44,14.10 2.01,13.45 4.46,12.80 7.30,12.90 10.14,12.99 12.65,12.97 15.15,12.94 18.15,12.88 21.15,12.81 24.12,12.75 27.09,12.69 29.47,13.87 31.86,15.05 33.41,17.04 34.96,19.02 34.75,21.70 34.55,24.38 32.20,27.08 29.85,29.78 27.44,30.91 25.03,32.04 22.41,32.81 19.78,33.58 17.50,34.12 15.22,34.65 12.73,35.46 10.23,36.27 8.18,36.97 6.13,37.66 6.74,35.57 7.35,33.47 9.63,32.66 11.90,31.86 15.64,31.95 19.39,32.04 21.64,32.03 23.89,32.01 26.24,32.41 28.59,32.81 30.76,34.46 32.93,36.12 34.32,38.10 35.71,40.08 35.56,43.32 35.41,46.57 34.27,48.41 33.14,50.25 29.55,52.41 25.97,54.56 22.47,55.73 18.97,56.90 16.61,57.62 14.24,58.34 11.53,59.32 8.82,60.31 10.07,58.42 11.32,56.53 13.47,56.79 15.62,57.05 17.93,57.42 20.24,57.80 22.70,58.93 25.16,60.06 26.53,61.96 27.91,63.86 27.84,67.72 27.77,71.57 26.61,73.40 25.45,75.22 23.90,76.75 22.35,78.27 20.01,79.64 17.67,81.01 18.12,80.37 18.57,79.73 18.17,80.87 17.77,82.00 17.02,82.95 16.28,83.89 15.27,84.55 14.26,85.21 13.10,85.51 11.93,85.81 10.73,85.72 9.53,85.64 8.42,85.17 7.31,84.71 6.41,83.91 5.51,83.12 4.90,82.08 4.30,81.04 4.06,79.86 3.82,78.68 3.97,77.48 4.13,76.29 4.65,75.21 5.17,74.12 6.02,73.26 6.86,72.41 7.93,71.86 9.00,71.31 10.20,71.14 11.39,70.97 12.57,71.18 13.75,71.40 14.81,71.98 15.86,72.56 16.67,73.45 17.48,74.34 17.97,75.44 18.46,76.54 18.57,77.74 18.67,78.94 18.40,80.11 18.12,81.28 17.48,82.30 16.84,83.32 15.91,84.08 14.98,84.84 13.85,85.27 12.73,85.69 11.53,85.74 10.32,85.78 9.17,85.44 8.02,85.10 7.03,84.41 6.05,83.71 5.34,82.74 4.63,81.77 4.26,80.62 3.90,79.48 3.92,78.27 3.94,77.07 3.94,77.07 3.94,77.07 6.87,72.86 9.79,68.65 12.00,68.54 14.21,68.44 16.70,70.23 19.18,72.02 16.68,71.61 14.19,71.19 10.65,71.04 7.11,70.89 4.15,70.37 1.19,69.85 -0.92,68.34 -3.04,66.83 -4.20,64.93 -5.36,63.03 -5.67,60.69 -5.98,58.35 -5.25,56.07 -4.52,53.79 -3.07,51.97 -1.63,50.14 0.73,48.73 3.10,47.32 5.65,46.30 8.19,45.29 10.32,44.72 12.45,44.14 14.81,43.39 17.16,42.63 19.48,42.24 21.79,41.84 22.83,43.91 23.88,45.98 21.63,45.96 19.38,45.95 15.59,46.03 11.81,46.12 8.61,46.02 5.42,45.92 2.43,45.23 -0.55,44.54 -2.67,42.44 -4.78,40.34 -5.03,36.60 -5.28,32.87 -4.13,30.49 -2.98,28.10 0.32,26.31 3.62,24.52 6.35,23.54 9.09,22.56 12.32,21.69 15.55,20.82 18.91,21.41 22.27,22.01 23.82,24.13 25.37,26.26 22.37,26.19 19.37,26.13 17.22,26.08 15.07,26.03 12.40,25.95 9.72,25.88 6.43,25.69 3.14,25.50 0.42,25.22 -2.30,24.94 -6.40,22.05 -10.50,19.17 -9.33,14.81 -8.16,10.45 -6.01,9.46 -3.86,8.48 -0.83,7.00 2.19,5.51 5.32,5.07 8.46,4.62 5.92,4.78 3.37,4.94 2.00,5.02 0.63,5.11 0.01,5.11 -0.60,5.11 -1.20,4.96 -1.80,4.82 -2.35,4.53 -2.91,4.24 -3.37,3.83 -3.84,3.42 -4.19,2.91 -4.55,2.40 -4.77,1.82 -4.99,1.24 -5.07,0.63 -5.14,0.01 -5.07,-0.59 -5.00,-1.21 -4.78,-1.79 -4.56,-2.37 -4.21,-2.88 -3.86,-3.40 -3.40,-3.81 -2.94,-4.22 -2.39,-4.51 -1.84,-4.80 -1.24,-4.95 -0.63,-5.11 -0.63,-5.11 L -0.63,-5.11 Z"></path></g></svg>